<?xml version="1.0" encoding="UTF-8" standalone="no"?>
<!-- Created with Inkscape (http://www.inkscape.org/) -->

<svg
   width="210mm"
   height="297mm"
   viewBox="0 0 210 297"
   version="1.1"
   id="svg5"
   xmlns="http://www.w3.org/2000/svg"
   xmlns:svg="http://www.w3.org/2000/svg">
  <defs
     id="defs2" />
  <g
     id="layer1">
    <path
       style="fill:#000000;stroke-width:0.774793"
       d="m 34.444108,231.75057 c 0.60665,-1.49523 1.04865,-3.1852 0.64148,-2.45267 -0.18037,0.32448 -1.00407,0.95183 -1.83044,1.39409 -1.1713,0.62686 -2.05308,0.42778 -4.00014,-0.90307 -5.63918,-3.85451 -14.79539,-13.941 -16.27879,-17.93273 -0.27713,-0.74574 -0.86347,-1.35589 -1.30298,-1.35589 -0.43951,0 -0.79911,-0.49808 -0.79911,-1.10684 0,-0.60877 -0.47036,-1.57721 -1.0452404,-2.15209 -1.38925,-1.38925 -3.0748,-6.60415 -2.56444,-7.9341 0.22304,-0.58126 2.53089,-2.18964 5.1285504,-3.57417 3.14949,-1.67865 5.61922,-3.73822 7.41302,-6.18186 3.09636,-4.21808 3.33385,-5.39389 1.08948,-5.39389 -2.37869,0 -4.601,-1.4248 -4.57426,-2.93273 0.022,-1.23798 0.0774,-1.23612 0.81329,0.0273 0.43436,0.74573 1.14164,1.35588 1.57175,1.35588 0.43011,0 0.56654,-0.34865 0.30317,-0.77479 -0.26336,-0.42614 -0.11709,-0.77479 0.32506,-0.77479 0.53438,0 0.50802,-0.64943 -0.0786,-1.93698 -0.4854,-1.06534 -1.30687,-1.93698 -1.8255,-1.93698 -0.51862,0 -1.42146,-0.58007 -2.00631,-1.28904 -0.9581,-1.16144 -0.90088,-1.20249 0.57805,-0.41466 0.90278,0.48091 1.8081,0.70769 2.01183,0.50397 0.20373,-0.20373 1.36507,1.20316 2.58075,3.12643 1.21569,1.92325 2.48947,3.49683 2.83063,3.49683 0.34116,0 0.62029,-1.1802 0.62029,-2.62267 0,-1.96381 -0.50187,-2.9515 -1.99775,-3.93164 -1.1736,-0.76897 -1.82289,-1.76462 -1.5739,-2.41348 0.23311,-0.60749 0.028,-1.10452 -0.45577,-1.10452 -0.48378,0 -0.6493,-0.2303 -0.36782,-0.51178 0.28147,-0.28147 1.21122,0.12122 2.06611,0.89488 0.96296,0.87146 1.55433,1.04878 1.55433,0.46605 0,-0.51733 0.34866,-0.72512 0.7748,-0.46175 0.42613,0.26337 0.77479,1.54561 0.77479,2.84943 v 2.37059 l 2.46238,-2.40744 c 1.35432,-1.32409 2.65657,-2.21325 2.8939,-1.97592 0.23733,0.23733 -0.43492,1.08619 -1.49389,1.88635 -1.29726,0.9802 -1.50856,1.39418 -0.64769,1.26894 0.70275,-0.10225 1.90117,-0.69361 2.66315,-1.31413 1.25773,-1.02426 1.3354,-0.98542 0.84276,0.42135 -0.44293,1.2648 -0.24364,1.1936 1.08435,-0.3874 0.89486,-1.06534 1.36856,-1.44728 1.05268,-0.84877 -0.39179,0.7423 -0.27323,0.9021 0.37298,0.50272 0.52103,-0.32201 0.76017,-1.0732 0.53142,-1.6693 -0.45238,-1.17888 0.72864,-1.51254 1.41617,-0.40009 0.87559,1.41674 -2.81809,4.75846 -6.20124,5.61034 l -3.42739,0.86303 0.0172,3.58828 0.0172,3.58829 1.42924,-1.85895 c 0.87844,-1.14255 1.54932,-1.49869 1.74084,-0.92415 0.17905,0.53715 0.88019,0.71661 1.64825,0.42187 0.73516,-0.2821 1.10843,-0.91221 0.82949,-1.40022 -0.27894,-0.48802 -0.20789,-0.61488 0.15789,-0.28192 0.36577,0.33297 1.10663,-0.19001 1.64634,-1.16219 0.94442,-1.70115 0.98234,-1.70713 1.00876,-0.15935 0.0335,1.96253 -2.64758,4.52178 -5.78349,5.52068 -1.4904,0.47475 -2.41321,1.34411 -2.57196,2.42299 -0.21013,1.42806 0.14149,1.69308 2.32438,1.75188 2.48097,0.0669 2.44862,0.10362 -0.91461,1.04001 -4.42759,1.23274 -12.3691,5.32382 -8.91011,4.59007 1.27841,-0.27119 4.57786,-1.29956 7.33213,-2.28526 2.75426,-0.9857 5.11643,-1.6835 5.24928,-1.55066 0.13284,0.13284 -1.77199,1.11831 -4.23296,2.18992 -2.46097,1.07161 -5.32081,2.63863 -6.3552,3.48225 l -1.88072,1.53386 2.54084,-0.37291 c 2.6513,-0.38913 11.77988,-6.09355 12.26284,-7.66301 0.1529,-0.49688 -0.17712,-1.05698 -0.73337,-1.24468 -0.55625,-0.1877 -0.40157,-0.2497 0.34375,-0.13781 0.74531,0.1119 1.52594,-0.0729 1.73472,-0.41076 0.20879,-0.33782 1.69093,-0.84667 3.29364,-1.13076 1.60272,-0.2841 3.56784,-0.70963 4.36695,-0.94563 0.8402,-0.24815 1.25586,-0.11027 0.98566,0.32693 -0.25699,0.41581 -1.86107,0.97891 -3.56463,1.25132 -2.12486,0.33978 -4.29919,1.56268 -6.92507,3.89483 -2.10523,1.86974 -7.16929,5.03589 -11.25346,7.03587 -4.08417,1.99998 -7.42577,3.91073 -7.42577,4.2461 0,0.76864 10.05585,-2.84191 11.62189,-4.17284 3.33353,-2.83307 2.9654,-1.6508 -0.58109,1.8662 -2.23722,2.2186 -4.06766,4.13703 -4.06766,4.26318 0,0.12614 0.54109,0.43699 1.20243,0.69077 0.66133,0.25378 1.05099,0.20392 0.8659,-0.1108 -0.18509,-0.31472 0.8274,-1.13071 2.24996,-1.81331 2.4499,-1.17556 2.54737,-1.16802 1.84587,0.14276 -1.304,2.43654 -0.80181,2.44091 1.62495,0.0142 1.47755,-1.47754 4.2663,-2.95264 7.42886,-3.92946 2.78482,-0.86014 6.16568,-2.29052 7.51304,-3.17863 l 2.44974,-1.61477 -2.50059,2.23355 c -1.37532,1.22846 -4.55237,2.84817 -7.0601,3.59936 -3.16869,0.94916 -5.43744,2.26486 -7.43761,4.31322 -2.63498,2.69847 -2.72581,2.92991 -1.07522,2.73995 0.99159,-0.11412 4.0312,-1.47264 6.75471,-3.01892 2.72351,-1.54629 5.13203,-2.63124 5.35226,-2.41101 0.22024,0.22024 0.93526,-0.0324 1.58894,-0.56134 0.98131,-0.7941 1.06996,-0.76524 0.50848,0.16557 -0.37401,0.62004 0.8683,-0.1669 2.76069,-1.74875 4.84541,-4.05025 19.66609,-11.36554 24.15335,-11.92174 3.67493,-0.45552 3.67502,-0.45561 2.01213,-1.89782 -2.05719,-1.78419 -1.65933,-1.81063 -6.38725,0.42441 -2.1718,1.02668 -5.34335,2.08192 -7.0479,2.34498 -2.72372,0.42035 -2.58292,0.30451 1.16219,-0.95623 2.34375,-0.78899 5.30733,-1.99166 6.58574,-2.67263 2.06049,-1.09755 2.16036,-1.30215 0.87965,-1.80224 -0.7946,-0.31027 -4.10684,0.0496 -7.36053,0.79964 -7.86148,1.81229 -10.89735,2.25115 -9.40237,1.35918 0.63921,-0.38138 4.60135,-1.4914 8.80477,-2.4667 l 7.64258,-1.77326 -4.01804,-2.3198 c -2.20992,-1.27589 -4.32165,-3.11836 -4.69272,-4.09436 -0.37108,-0.97601 -1.30481,-1.98732 -2.07496,-2.24734 -1.94157,-0.65556 -6.28792,-6.62202 -7.88087,-10.81846 -0.72887,-1.92015 -1.62959,-3.7687 -2.00159,-4.10789 -0.37286,-0.33998 -0.42873,-0.18611 -0.12451,0.34291 0.37166,0.64627 0.15923,0.80894 -0.65057,0.4982 -1.32531,-0.50858 -1.67403,1.22993 -0.49241,2.45488 0.43338,0.44928 0.29617,1.11247 -0.35218,1.7022 -0.87513,0.79598 -1.34131,0.33515 -2.647,-2.61657 -0.87164,-1.97049 -1.59589,-3.97421 -1.60944,-4.45271 -0.0398,-1.40575 -2.23132,-3.90846 -2.86637,-3.27341 -0.32046,0.32046 0.0246,0.92248 0.76678,1.33783 0.74219,0.41535 1.34944,1.07211 1.34944,1.45948 0,0.38735 -1.76654,-0.39385 -3.92565,-1.73603 -2.83495,-1.7623 -3.82642,-2.81974 -3.56852,-3.80595 0.45461,-1.73843 -1.28413,-4.17438 -2.4606,-3.44728 -0.49078,0.30332 -0.89233,1.64662 -0.89233,2.9851 0,1.86545 -0.21276,2.22085 -0.91132,1.52229 -0.66548,-0.66548 -1.18799,-0.68169 -1.93698,-0.0601 -0.77935,0.64683 -1.02566,0.54937 -1.02566,-0.4058 0,-1.35781 -1.18418,-1.70033 -1.89609,-0.54844 -0.24087,0.38974 5e-5,0.8852 0.53537,1.10102 0.66676,0.26882 0.60438,0.41167 -0.19806,0.45357 -0.91799,0.048 -1.19521,-1.0034 -1.28148,-4.85999 -0.11712,-5.23492 -1.87721,-9.77194 -4.82522,-12.43806 -1.22811,-1.11067 -1.63204,-2.39697 -1.63204,-5.19722 0,-3.24095 -0.3752,-4.11568 -2.90697,-6.77712 -2.7856504,-2.92833 -2.9088604,-3.28538 -2.9523904,-8.55535 -0.025,-3.02471 0.22403,-5.49947 0.5533604,-5.49947 0.32933,0 0.57618,-1.89304 0.54854,-4.20675 -0.0276,-2.31371 0.18398,-4.58574 0.47025,-5.04894 0.28628,-0.4632 0.68083,-1.726336 0.87679,-2.806966 0.73786,-4.06907 2.74167,-7.99263 3.86232,-7.5626 0.60373,0.23167 1.09769,0.0643 1.09769,-0.3719 0,-0.43622 -0.36861,-0.91599 -0.81913,-1.06617 -0.45053,-0.15017 -0.58755,-0.87654 -0.30451,-1.61415 0.55315,-1.44146 1.89843,-1.842768 1.89843,-0.56631 0,0.42613 0.54855,0.77479 1.219,0.77479 0.75117,0 1.11147,-0.52037 0.93881,-1.35589 -0.15411,-0.745733 -0.84047,-1.313545 -1.52524,-1.261799 -1.12961,0.08536 -1.13696,-0.16606 -0.0792,-2.711774 1.64422,-3.957283 6.33595,-10.166387 7.68194,-10.166387 0.62159,0 1.04173,-0.435821 0.93364,-0.968491 -0.34158,-1.683386 1.73526,-4.720969 5.82711,-8.522719 2.1786,-2.024145 4.20478,-3.680264 4.50262,-3.680264 0.29785,0 0.76019,-0.688909 1.02743,-1.530908 0.26724,-0.842 2.20799,-2.498119 4.31278,-3.680265 2.10479,-1.182146 3.82725,-2.431426 3.82768,-2.776177 4.4e-4,-0.344751 0.34945,-0.411339 0.77558,-0.147973 0.42614,0.263367 0.7748,0.129728 0.7748,-0.296975 0,-0.426704 1.74619,-1.754743 3.88044,-2.951198 2.13424,-1.196456 4.06075,-2.739541 4.28114,-3.429079 0.22038,-0.689538 1.17627,-1.909836 2.1242,-2.711774 l 1.7235,-1.45807 -1.43097,1.693557 c -0.93117,1.102048 -1.63861,3.672861 -2.02548,7.36053 -0.32698,3.116835 -0.64718,4.969659 -0.71157,4.117387 -0.0977,-1.293026 -0.24142,-1.357165 -0.86813,-0.387396 -0.60424,0.934998 -0.75338,0.812464 -0.76293,-0.62682 -0.007,-1.015308 -0.35326,-1.578014 -0.80127,-1.30113 -0.9264,0.572544 -0.59099,10.38041 0.41185,12.043204 0.57818,0.958681 0.48696,0.966697 -0.6359,0.05588 -1.13266,-0.918765 -1.31092,-0.887195 -1.31092,0.232175 0,0.712544 0.49999,2.26242 1.1111,3.444168 1.27385,2.463356 3.53765,4.599753 3.53765,3.338557 0,-0.453165 -0.34865,-1.039417 -0.77479,-1.302784 -1.43657,-0.887853 -0.78888,-1.795424 0.96849,-1.357082 1.70015,0.424067 1.69535,0.39415 -0.1937,-1.208949 -1.06534,-0.904076 -1.66653,-1.655374 -1.33599,-1.669552 0.33055,-0.01418 0.0691,-1.054432 -0.58109,-2.311678 -1.64577,-3.182559 -1.47598,-4.015202 0.24483,-1.200665 0.78162,1.278408 1.97539,2.781949 2.65281,3.341203 1.03419,0.853782 0.9922,0.386574 -0.26184,-2.913784 -0.82143,-2.161834 -1.46671,-4.537016 -1.43396,-5.278184 0.0328,-0.741166 0.46857,-0.124576 0.96849,1.370202 1.59065,4.756108 4.0626,7.310199 8.23254,8.506122 1.99982,0.573543 2.41949,0.504963 2.09438,-0.342253 -0.317,-0.826103 0.077,-0.920828 1.78853,-0.429972 1.20731,0.346251 3.71228,0.541398 5.5666,0.433659 5.03952,-0.292802 11.7644,3.447682 14.95608,8.318805 1.22105,1.863551 1.23789,2.068757 0.13506,1.645563 -0.69296,-0.265918 -1.25994,-0.797147 -1.25994,-1.180508 0,-0.822801 -3.2122,-3.733741 -4.10159,-3.716926 -0.33827,0.0064 -1.67247,-0.878159 -2.96492,-1.965677 -2.5285,-2.127592 -3.78059,-2.494431 -3.78059,-1.107643 0,0.600856 -0.35922,0.571532 -1.16218,-0.09487 -0.84136,-0.698264 -1.16219,-0.716928 -1.16219,-0.06761 0,0.64667 -0.41815,0.673139 -1.49865,0.09487 -0.82426,-0.441128 -2.08725,-0.802052 -2.80665,-0.802052 -1.1308,0 -1.16394,0.177091 -0.24463,1.307254 0.92658,1.139107 0.89603,1.244609 -0.23751,0.820222 -0.71547,-0.267866 -2.63308,-0.703418 -4.26136,-0.967892 -2.77844,-0.451291 -2.868,-0.40644 -1.45652,0.729362 1.4411,1.159628 1.40252,1.210224 -0.92276,1.210224 -1.33471,0 -2.64222,0.348657 -2.90559,0.774793 -0.26336,0.426135 -0.0276,0.774792 0.5239,0.774792 0.55151,0 -0.38672,0.735364 -2.08496,1.634141 -3.75018,1.984757 -5.51358,3.477348 -5.62493,4.761118 -0.34526,3.980368 -0.81507,4.493417 -5.79178,6.324839 -3.1597,1.162762 -3.67332,1.646653 -3.63116,3.420923 0.0471,1.98106 0.0776,1.99578 0.73785,0.3557 0.64555,-1.60361 5.32485,-3.517681 10.99507,-4.497533 0.97726,-0.168878 2.82281,-0.507561 4.10122,-0.752629 4.90374,-0.940039 12.7141,-1.359838 15.51695,-0.83402 2.06429,0.387263 4.25322,1.815252 7.43565,4.850772 2.48058,2.36607 4.71751,4.95528 4.97095,5.75381 0.25344,0.79852 0.82327,1.45186 1.26628,1.45186 0.44301,0 0.60615,-0.51943 0.36253,-1.15429 -0.30277,-0.78901 0.22267,-1.3255 1.66039,-1.69532 l 2.10333,-0.54102 -1.93698,-0.55183 c -1.61403,-0.45983 -1.42027,-0.56294 1.16219,-0.61848 4.521504,-0.0972 6.569744,0.60194 6.013064,2.05261 -0.31888,0.83101 -0.16338,1.02626 0.49383,0.62008 0.52761,-0.32608 0.7889,-1.03689 0.58064,-1.57958 -0.20825,-0.54268 1.066598,-2.33787 2.832968,-3.98929 1.76639,-1.651414 2.55628,-2.218098 1.75532,-1.259292 -1.80777,2.164032 -1.05318,2.242032 1.73655,0.179497 1.16332,-0.860082 4.19994,-2.420762 6.74806,-3.468177 2.54811,-1.047415 4.10994,-1.90439 3.47074,-1.90439 -0.63921,0 -3.16697,0.824444 -5.61725,1.832098 -2.45028,1.007655 -4.45506,1.711389 -4.45506,1.563856 0,-0.147534 1.50268,-1.148873 3.3393,-2.225198 4.2993,-2.51956 13.52908,-3.852794 22.22886,-3.210938 7.28315,0.53734 14.94913,2.300201 15.35977,3.53212 0.14587,0.437613 0.67198,0.797604 1.16914,0.79998 0.49716,0.0024 2.21138,0.367422 3.80939,0.811211 2.1483,0.596612 2.90548,1.220175 2.90548,2.392762 0,1.451861 -0.34372,1.549081 -4.06766,1.150561 l -4.06767,-0.43531 3.87397,1.0032 c 3.24013,0.83907 4.01901,0.82913 4.7605,-0.0608 1.60999,-1.932275 0.29414,-4.029077 -3.10644,-4.95006 -5.58576,-1.512799 -7.63297,-2.739284 -11.33812,-6.79265 -2.25247,-2.464172 -2.59719,-3.198538 -1.62387,-3.459407 0.99616,-0.266987 0.96399,-0.348588 -0.16599,-0.421046 -0.77089,-0.04943 -1.18613,-0.438535 -0.92276,-0.86467 0.28919,-0.467922 -0.76675,-0.774793 -2.66605,-0.774793 -1.72969,0 -3.1449,-0.348657 -3.1449,-0.774793 0,-0.426136 0.67674,-0.774792 1.50386,-0.774792 0.82712,0 1.75146,-0.400621 2.05407,-0.890269 0.40326,-0.652484 -0.87331,-0.776002 -4.7795,-0.462451 -4.86789,0.390748 -5.19693,0.326377 -3.79736,-0.742881 1.41061,-1.077682 1.23338,-1.128522 -2.23063,-0.639858 -2.766,0.390197 -3.61585,0.292742 -3.2076,-0.367827 0.30548,-0.494267 -0.6161,-0.293007 -2.04794,0.447244 -2.33956,1.209533 -2.4956,1.216018 -1.54,0.064 1.42149,-1.713645 0.26741,-1.615116 -2.76921,0.23642 -1.85363,1.13022 -2.37125,1.22741 -2.0478,0.3845 0.58153,-1.515432 0.005,-1.428405 -3.83144,0.578161 -1.7941,0.938413 -3.49232,1.646119 -3.7738,1.572681 -0.69847,-0.182222 -6.073928,5.831969 -6.073928,6.795647 0,0.424908 -0.34866,0.772561 -0.77479,0.772561 -1.37129,0 -0.83758,-1.197319 2.023868,-4.540273 3.26722,-3.817015 9.4527,-7.200582 13.85493,-7.578896 1.7021,-0.146273 4.1427,-1.015695 5.42355,-1.932048 1.28085,-0.916354 1.89299,-1.19788 1.36032,-0.625615 -1.31171,1.40922 -1.23459,2.690736 0.0955,1.58686 0.58519,-0.485667 1.71832,-0.669797 2.51807,-0.409178 1.19999,0.391046 1.25101,0.327758 0.29191,-0.362165 -0.97166,-0.698955 -0.88697,-0.837961 0.51653,-0.84788 0.92329,-0.0065 1.85457,-0.447685 2.06951,-0.980355 0.22579,-0.559578 0.41662,-0.373968 0.45196,0.439608 0.0477,1.097469 0.44326,1.286826 1.79322,0.858366 2.91659,-0.92569 7.63482,-5.196651 9.10698,-8.243685 l 1.39582,-2.889003 -2.30483,1.191874 -2.30483,1.191875 1.72623,-2.334851 c 0.94942,-1.284168 2.01043,-3.660834 2.35778,-5.281481 0.58408,-2.725133 0.61011,-2.655953 0.34625,0.920323 l -0.2853,3.866954 1.52397,-1.88203 c 0.83819,-1.035116 1.72005,-2.86241 1.9597,-4.060652 0.23965,-1.198242 0.58932,-2.178622 0.77705,-2.178622 1.64138,0 12.64028,6.093748 17.28521,9.576559 7.43662,5.576053 16.27064,14.34228 16.27064,16.145778 0,0.767472 0.45435,1.395403 1.00967,1.395403 1.23888,0 7.51305,8.741492 7.51305,10.46757 0,0.685175 0.34467,1.032757 0.76592,0.772408 0.45494,-0.281173 0.55877,0.06644 0.25573,0.856167 -0.30373,0.791487 -0.19948,1.137501 0.25759,0.855016 0.42228,-0.260983 1.38819,1.250777 2.14646,3.359466 0.75827,2.10869 1.65968,3.83398 2.00312,3.83398 0.34345,0 0.42784,0.75183 0.18754,1.67074 -0.32546,1.24453 -0.17759,1.51047 0.57964,1.04247 0.649,-0.4011 0.82926,-0.3252 0.49855,0.2099 -0.28491,0.46099 0.14835,2.52874 0.9628,4.595 0.81444,2.06626 1.93316,6.448956 2.48603,9.739306 0.93324,5.554 0.9044,6.05619 -0.40266,7.01193 -1.0191,0.74518 -1.25131,1.52288 -0.84086,2.8161 0.39328,1.2391 0.74887,1.49246 1.1603,0.82675 0.32628,-0.52794 0.77495,-0.66117 0.99705,-0.29607 0.22208,0.36509 -0.78031,2.02936 -2.22753,3.69837 -1.44724,1.66901 -2.63134,2.66567 -2.63134,2.2148 0,-0.45086 -1.47173,-1.40862 -3.2705,-2.12834 -4.14332,-1.65784 -8.57047,-1.07084 -12.84942,1.70369 -4.07323,2.64113 -5.88692,5.97387 -5.41511,9.95053 0.39658,3.34257 -1.17528,8.07502 -2.68763,8.09171 -0.52696,0.006 -1.78144,0.23098 -2.78775,0.50036 -1.68226,0.45031 -1.79065,0.30902 -1.3455,-1.75387 0.62582,-2.9002 -0.59544,-7.04491 -2.75234,-9.34083 -2.41682,-2.57257 -3.23787,-2.24471 -1.76595,0.70516 l 1.25646,2.51808 -2.04271,-2.13068 c -1.1235,-1.17188 -2.18514,-2.13068 -2.35922,-2.13068 -0.63119,0 2.13999,5.83375 3.67427,7.73492 l 1.5737,1.94999 -0.4431,-2.71178 -0.4431,-2.71177 1.15169,2.61996 c 0.63342,1.44098 0.96743,3.10013 0.74223,3.687 -0.2252,0.58686 -0.0426,2.0228 0.40575,3.19097 1.06752,2.78131 0.92633,17.95215 -0.17947,19.28456 -0.46699,0.56268 -0.81515,3.28336 -0.77371,6.04594 0.0414,2.76258 -0.25568,5.89354 -0.66026,6.95768 -0.46762,1.22994 -0.46414,2.1026 0.01,2.39537 0.40985,0.2533 0.74519,0.0664 0.74519,-0.41542 0,-0.48179 0.78448,-0.81243 1.74328,-0.73476 5.78149,0.46832 10.72303,-0.11111 11.82192,-1.3862 0.64268,-0.74574 2.23867,-2.57619 3.54665,-4.06766 2.33522,-2.66286 2.34658,-2.66653 0.62979,-0.20323 -0.96157,1.37971 -1.53945,2.71742 -1.28417,2.97269 0.25529,0.25529 1.05313,-0.43474 1.773,-1.5334 0.71987,-1.09865 1.628,-1.8003 2.01808,-1.55921 0.39009,0.24108 0.61344,-0.0234 0.49635,-0.58775 -0.11709,-0.56434 0.19175,-0.94931 0.68631,-0.85548 0.49455,0.0938 2.20709,-1.27708 3.80561,-3.04646 1.59854,-1.76938 4.47777,-4.41649 6.3983,-5.88247 3.42318,-2.61297 3.45887,-2.62163 1.81404,-0.4401 -3.34284,4.43359 -18.38236,20.24754 -20.03351,21.0651 -1.13375,0.56137 -2.5394,0.59539 -4.25624,0.10301 -1.40993,-0.40435 -4.01851,-0.73519 -5.79689,-0.73519 -1.88573,0 -3.37758,-0.40367 -3.57931,-0.96849 -0.19024,-0.53267 -0.602,-0.73106 -0.91503,-0.44086 -0.31302,0.2902 0.17562,2.51818 1.08588,4.95107 l 1.65501,4.42343 -2.16043,-1.40612 c -1.41744,-0.92253 -1.88978,-1.0265 -1.37342,-0.30231 0.43286,0.6071 0.73458,1.62679 0.67047,2.266 -0.0641,0.6392 -0.15678,1.59801 -0.20593,2.13068 -0.10738,1.16362 -2.72796,1.26951 -4.74204,0.1916 -0.97037,-0.51932 -1.61082,-0.51932 -1.93178,0 -0.93147,1.50716 -3.94291,0.74526 -8.08817,-2.04632 l -4.19224,-2.82322 -2.64246,2.88342 c -2.58311,2.81866 -2.61057,2.91865 -1.2228,4.45212 1.66756,1.84264 4.70741,3.49755 9.10625,4.95752 2.47673,0.82202 2.63312,0.96171 0.71985,0.64297 -1.34437,-0.22395 -2.6569,-0.0632 -2.91672,0.35718 -0.69543,1.12522 2.36583,1.86314 5.62209,1.3552 1.76657,-0.27556 2.27248,-0.20754 1.33996,0.18016 -1.06405,0.44237 -1.22504,0.79165 -0.5556,1.20539 0.51898,0.32075 2.2368,-0.14949 3.82254,-1.0464 2.76177,-1.56208 2.8049,-1.56461 1.05086,-0.0615 l -1.82913,1.56749 h 2.0477 c 1.12624,0 3.2568,-0.5052 4.7346,-1.12266 1.47778,-0.61746 2.68689,-0.95716 2.68689,-0.75489 0,0.57259 4.76872,-1.97932 7.4586,-3.99136 1.33235,-0.9966 2.63274,-1.60171 2.88978,-1.34468 0.25703,0.25703 -1.65936,1.72375 -4.25864,3.25936 -5.01246,2.9613 -4.50353,4.37851 0.63126,1.75785 2.83254,-1.44565 6.55298,-4.77676 5.33505,-4.77676 -0.31943,0 0.87983,-1.2203 2.665,-2.71177 1.78518,-1.49148 3.58203,-2.71178 3.993,-2.71178 0.41096,0 0.55615,-0.30915 0.32262,-0.687 -0.23353,-0.37785 0.0946,-1.11785 0.72907,-1.64446 0.63451,-0.52659 1.15366,-1.31745 1.15366,-1.75745 0,-0.44 -0.65424,-0.20793 -1.45386,0.51571 -1.33136,1.20487 -1.49456,1.20964 -1.93698,0.0567 -0.65676,-1.71147 -0.60793,-2.07564 0.21048,-1.56983 0.38148,0.23577 0.90201,-0.11441 1.15671,-0.77818 0.25472,-0.66377 0.78931,-1.00525 1.18799,-0.75885 0.39868,0.2464 0.87664,-0.34165 1.06214,-1.30678 0.27651,-1.43859 0.35629,-1.34922 0.4428,0.49599 0.0995,2.12306 0.18523,2.17861 1.51071,0.97907 1.0668,-0.96545 1.62186,-1.05505 2.30485,-0.37206 0.68298,0.68298 1.17691,0.26062 2.05103,-1.75386 0.90155,-2.0777 1.15798,-2.28811 1.18173,-0.96967 0.0306,1.70078 -3.40308,6.45149 -4.66299,6.45149 -0.37489,0 -0.46973,-0.61015 -0.21077,-1.35588 0.37536,-1.08092 0.10419,-1.00672 -1.33716,0.36587 -2.42567,2.30998 -1.77025,2.67667 2.76747,1.54832 3.42394,-0.8514 3.85604,-1.20537 4.33295,-3.54948 0.59506,-2.92479 2.95651,-5.9448 3.09202,-3.95429 0.0425,0.62398 0.35638,0.26288 0.69756,-0.80246 0.61968,-1.93498 0.6204,-1.93467 0.69756,0.29595 0.0425,1.2281 -0.6041,3.33533 -1.43683,4.68272 l -1.51406,2.4498 2.50974,-0.293 c 2.81818,-0.329 6.57384,2.06235 5.63208,3.58615 -0.9817,1.58842 -6.76314,1.07657 -8.73201,-0.77308 -1.47157,-1.38248 -2.08632,-1.52628 -3.5365,-0.82723 -1.64952,0.79512 -1.66063,0.84928 -0.18442,0.89855 1.80024,0.0601 5.01485,2.1085 5.01485,3.19554 0,1.32662 -3.98084,0.76028 -6.30905,-0.89756 -1.99278,-1.41898 -2.58005,-1.50698 -4.56629,-0.68425 -2.81762,1.1671 -7.71968,6.47467 -7.71968,8.35829 0,1.783 1.4699,3.2519 3.25413,3.2519 0.96208,0 1.39462,-0.58658 1.39462,-1.89126 0,-1.04019 0.40791,-2.14335 0.90647,-2.45148 0.615,-0.38009 0.74241,-0.13272 0.39626,0.76931 -0.30304,0.78973 -0.19921,1.13734 0.25573,0.85617 0.42126,-0.26035 0.76592,-0.97578 0.76592,-1.58983 0,-0.61406 0.34866,-1.11646 0.7748,-1.11646 1.0999,0 0.96166,0.93799 -0.43133,2.92677 -1.12722,1.60933 -1.10366,1.72198 0.36013,1.72198 0.86145,0 1.93945,-0.69731 2.39557,-1.54958 0.45612,-0.85227 1.49379,-1.54959 2.30592,-1.54959 0.81213,0 1.69207,-0.34865 1.95544,-0.77479 0.60777,-0.9834 4.26136,-1.02106 4.26136,-0.0439 0,1.08711 -3.21469,3.13547 -5.01485,3.19539 -0.86399,0.0288 0.11684,0.50588 2.17961,1.06025 4.01307,1.07852 7.23371,3.61032 6.37011,5.00765 -0.67172,1.08687 -5.86847,1.10408 -8.71428,0.0289 -1.19962,-0.45325 -3.09452,-1.69528 -4.2109,-2.76007 -1.7799,-1.69765 -2.35222,-1.84326 -4.64876,-1.18277 -1.59925,0.45994 -2.01562,0.78091 -1.06938,0.82436 1.97196,0.0905 9.4441,5.25379 11.39869,7.87649 1.8885,2.53401 3.13478,7.79807 2.09289,8.83995 -0.50475,0.50476 -1.74683,0.24076 -3.6422,-0.77411 -3.29038,-1.76185 -6.36282,-7.03428 -6.36282,-10.91889 0,-1.53276 -0.46341,-2.64254 -1.22556,-2.935 -2.21873,-0.85141 -2.90768,-0.49207 -1.69794,0.88559 2.70187,3.07688 2.68235,10.62741 -0.0261,10.11394 -2.04331,-0.38735 -3.7095,-6.50189 -2.5829,-9.47867 1.32003,-3.48784 -0.44714,-4.58824 -6.41398,-3.99391 -2.5223,0.25123 -4.78857,0.66037 -5.03616,0.9092 -0.24758,0.24882 0.85731,1.50213 2.45532,2.78511 2.85178,2.2896 3.67235,3.73199 2.1231,3.73199 -0.43031,0 -1.38911,-0.70964 -2.13068,-1.57699 l -1.3483,-1.57699 -0.50387,1.77069 c -0.42849,1.50582 -0.51541,1.3981 -0.58109,-0.72013 -0.11422,-3.6837 -3.29406,-4.75132 -8.56231,-2.87476 -0.6185,0.22031 -3.56139,0.57939 -6.53975,0.79795 -5.96441,0.4377 -6.66937,0.67379 -6.66937,2.23364 0,1.51308 2.29313,3.60694 3.28135,2.99619 0.46358,-0.2865 0.60944,-0.15405 0.32938,0.29909 -0.27646,0.44732 0.0469,1.02418 0.71845,1.28191 1.67316,0.64204 2.03498,0.58889 1.53194,-0.22504 -0.23577,-0.38147 0.0745,-0.88667 0.68941,-1.12265 0.67407,-0.25866 1.3084,0.17061 1.59735,1.08101 0.26359,0.83052 0.80443,1.55363 1.20185,1.6069 0.39741,0.0532 1.04218,0.14043 1.43281,0.19369 0.39062,0.0532 0.97171,0.35835 1.29131,0.67795 0.3196,0.3196 0.95881,0.57575 1.42046,0.56923 0.46161,-0.007 0.31634,-0.34984 -0.32286,-0.76293 -1.75394,-1.13348 0.11551,-0.87052 2.2607,0.31801 l 1.87332,1.03788 -1.77428,0.94956 c -2.08945,1.11824 -4.99052,0.65574 -9.47386,-1.51038 -4.04047,-1.95215 -4.32135,-1.95463 -2.57299,-0.0227 0.77008,0.85093 3.35188,2.13623 5.73733,2.85622 4.30492,1.29933 7.80038,3.26282 3.94978,2.21869 -1.47413,-0.39972 -1.65928,-0.33219 -0.7748,0.28262 0.63921,0.44433 1.75111,0.62474 2.4709,0.40092 0.8051,-0.25034 1.625,0.18407 2.13068,1.12894 1.19949,2.24128 1.07756,2.41255 -1.7174,2.41255 -2.86751,0 -5.98335,-1.84445 -5.98335,-3.54189 0,-1.01918 -4.22729,-4.19603 -5.59293,-4.20314 -1.17497,-0.006 0.35183,2.18847 1.78293,2.56271 0.82849,0.21665 2.04424,1.68129 2.70168,3.25475 2.31865,5.54932 -0.17349,9.07419 -2.59369,3.6685 -1.35035,-3.0161 -1.37323,-3.02829 -2.66946,-1.42306 l -1.30743,1.61911 -0.0345,-1.79422 c -0.019,-0.98682 0.35203,-2.51648 0.82448,-3.39926 0.68766,-1.2849 0.51083,-2.30219 -0.88658,-5.10022 l -1.74558,-3.49517 -1.06493,2.0325 c -0.93206,1.77883 -3.19848,3.62104 -4.45491,3.62104 -1.02432,0 1.47511,-3.89029 2.76181,-4.29868 3.18334,-1.01035 0.20995,-9.16268 -4.34943,-11.9251 -1.29464,-0.78439 -5.21845,-2.03534 -8.71957,-2.77987 -6.00256,-1.2765 -6.48063,-1.2784 -8.38087,-0.0333 -1.72248,1.12861 -1.86698,1.49912 -0.99485,2.55078 2.40116,2.89543 9.12796,4.17062 13.41086,2.54226 1.50054,-0.57051 1.88717,-0.5386 1.47887,0.12205 -0.37801,0.61162 -0.0247,0.75639 1.11713,0.45779 0.91849,-0.24019 1.88343,-0.0913 2.14433,0.33082 0.28733,0.4649 -0.7052,0.70778 -2.5173,0.61599 -3.61522,-0.18312 -8.02782,0.73319 -8.02782,1.66704 0,0.37286 1.30747,0.67924 2.90548,0.68084 5.15509,0.005 10.82127,5.12417 7.83083,7.07467 -1.87519,1.22309 -4.86177,-0.0738 -7.79787,-3.38628 -3.24939,-3.66588 -4.79591,-3.54336 -2.05578,0.16286 2.00874,2.71697 2.43776,7.86502 0.79086,9.48989 -0.8153,0.80439 -1.22346,0.69959 -2.18066,-0.55996 -0.88033,-1.15842 -1.06529,-2.67862 -0.73268,-6.02215 0.43746,-4.39743 0.40281,-4.49824 -2.06309,-6.00174 -1.59546,-0.97278 -3.89293,-1.53024 -6.31416,-1.53209 -2.94814,-0.002 -4.66717,-0.55541 -7.62571,-2.45391 -3.63045,-2.32966 -4.1709,-2.44486 -10.914918,-2.32677 -7.663384,0.13419 -17.555054,1.5568 -17.555054,2.52474 0,0.84674 4.29198,3.80026 5.54315,3.81449 0.83468,0.01 0.84422,0.13774 0.0479,0.64304 -1.27502,0.80903 -0.37847,3.2514 0.99944,2.72265 0.88486,-0.33955 2.70707,1.78568 2.70707,3.15725 0,1.83918 -7.07068,-4.14324 -8.01053,-6.7776 -0.27569,-0.77275 -0.85237,-1.18799 -1.28151,-0.92277 -0.42915,0.26522 -0.78027,-0.024 -0.78027,-0.64279 0,-0.61876 -0.51221,-1.32158 -1.13826,-1.56182 -1.66654,-0.6395 -9.08356,2.1145 -14.2002,5.27267 -2.44715,1.51044 -5.02586,2.74627 -5.7305,2.74627 -0.70464,0 -2.32272,0.8764 -3.59573,1.94758 -1.27301,1.07116 -3.60356,2.48615 -5.179,3.14441 -1.57543,0.65826 -5.28732,3.58159 -8.24862,6.49629 -5.15675,5.07559 -9.08446,7.51584 -8.06908,5.01323 z m 16.55768,-13.15816 c 4.15592,-1.64105 3.74642,-2.29291 -0.68997,-1.09831 -2.21136,0.59546 -4.33788,1.9809 -6.3216,4.11858 -4.72359,5.0902 -5.06005,6.73585 -0.47158,2.30657 2.28698,-2.20764 5.6544,-4.60471 7.48315,-5.32684 z m 77.640812,-2.36457 c 0,-0.64124 -1.50444,-1.00386 -1.84936,-0.44576 -0.22377,0.36207 0.10079,0.6583 0.72125,0.6583 0.62046,0 1.12811,-0.0957 1.12811,-0.21254 z m -39.514422,-1.07878 c 0,-0.42614 -0.36923,-0.7748 -0.82052,-0.7748 -0.45128,0 -0.60503,0.34866 -0.34166,0.7748 0.26336,0.42613 0.6326,0.77479 0.82052,0.77479 0.18791,0 0.34166,-0.34866 0.34166,-0.77479 z m -28.27993,-1.83035 c 2.17281,-0.41521 11.02807,-5.91758 9.52349,-5.91758 -0.67785,0 -3.0458,1.2203 -5.26213,2.71177 -4.45888,3.00061 -5.36387,3.34482 -3.78163,1.43835 0.85874,-1.03473 0.47712,-0.98227 -2.03581,0.27984 -1.70097,0.8543 -3.61566,1.77546 -4.25486,2.047 -1.06892,0.4541 2.10761,0.14832 5.81094,-0.55938 z m 72.004412,-0.57703 c -0.35965,-0.58193 0.0618,-0.69462 1.31016,-0.3504 1.57319,0.43374 1.64113,0.38265 0.46811,-0.35202 -0.75471,-0.47268 -2.10568,-1.00068 -3.00214,-1.17332 -1.57354,-0.30304 -1.58222,-0.26116 -0.251,1.20982 1.50457,1.66253 2.31772,2.02967 1.47487,0.66592 z m 48.18584,-3.42913 c -0.23989,-0.62515 -0.78829,-1.13663 -1.21867,-1.13663 -0.49106,0 -0.43888,0.75413 0.14009,2.02486 0.92706,2.03466 1.89448,1.23797 1.07858,-0.88823 z M 21.721228,204.60934 c 0,-0.66964 -2.82887,1.14472 -3.93769,2.52552 -0.77937,0.97056 -0.367,0.85499 1.41961,-0.39785 1.38494,-0.97118 2.51808,-1.92863 2.51808,-2.12767 z m 97.042762,2.245 c -0.9588,-0.18468 -2.52776,-0.18468 -3.48656,0 -0.95881,0.18467 -0.17433,0.33577 1.74328,0.33577 1.91761,0 2.70209,-0.1511 1.74328,-0.33577 z m -69.746032,-2.88992 c 0.24235,0.24235 0.70375,0.0149 1.02533,-0.50542 0.40538,-0.65591 0.25096,-0.75243 -0.50351,-0.31472 -0.59864,0.3473 -0.81669,0.33298 -0.48469,-0.0318 1.0223,-1.12334 3.03799,-1.10658 2.60504,0.0217 -0.65926,1.718 6.42403,-1.78293 10.54401,-5.21139 2.02415,-1.6844 3.68027,-2.69875 3.68027,-2.25412 0,0.44465 -0.43582,1.08726 -0.96849,1.42804 -0.53267,0.34078 -1.60876,1.37764 -2.39131,2.30414 -1.1699,1.38511 -1.21094,1.65345 -0.23087,1.50961 0.65557,-0.0962 1.81882,-0.72505 2.585,-1.39742 1.80446,-1.5835 6.00757,-3.72065 9.91578,-5.04187 l 3.09917,-1.0477 -3.87396,0.35428 c -2.58976,0.23685 -3.36028,0.1317 -2.32438,-0.3172 0.85227,-0.36932 2.59556,-0.71958 3.87396,-0.77838 2.23686,-0.10287 2.25898,-0.13844 0.58741,-0.94483 -2.85635,-1.37794 -11.10729,0.3767 -15.28387,3.25027 -1.94113,1.33553 -4.65837,2.80548 -6.03832,3.26656 -3.236,1.08124 -7.27811,4.09187 -8.42227,6.27306 -0.87061,1.6597 -0.85133,1.67048 0.63356,0.35422 0.84233,-0.74667 1.72979,-1.15929 1.97214,-0.91695 z m 34.29928,0.38199 3.09917,-0.64104 -2.71177,-0.0445 c -1.49148,-0.0245 -4.1064,0.24402 -5.81095,0.59659 l -3.09917,0.64104 2.71178,0.0445 c 1.49147,0.0245 4.1064,-0.24402 5.81094,-0.59659 z m 109.633142,-0.81924 c -0.6392,-0.41309 -2.03383,-0.71515 -3.09917,-0.67126 -1.78693,0.0736 -1.75692,0.12562 0.3874,0.67126 3.34901,0.85218 4.03042,0.85218 2.71177,0 z m -92.00661,-1.34211 c -1.811078,-0.16311 -4.774662,-0.16311 -6.585742,0 -1.81107,0.16313 -0.32928,0.2966 3.292874,0.2966 3.622158,0 5.103938,-0.13347 3.292868,-0.2966 z m -31.750282,-2.19319 c 0.94989,-0.12072 3.12169,-0.74473 4.82624,-1.38667 l 3.09917,-1.16719 -2.54894,-0.0546 c -2.68208,-0.0574 -8.16863,2.33725 -9.16911,4.002 -0.40342,0.67128 -0.17103,0.64067 0.73844,-0.0973 0.72992,-0.59225 2.10431,-1.17558 3.0542,-1.29629 z m -50.57143,-1.54065 c 0,-0.21307 -1.04597,0.1535 -2.32438,0.81459 -1.27841,0.66109 -2.32438,1.37631 -2.32438,1.58938 0,0.21307 1.04597,-0.1535 2.32438,-0.81459 1.27841,-0.66109 2.32438,-1.37631 2.32438,-1.58938 z m 58.88424,1.97678 1.93698,-0.62033 -1.93698,-0.0228 c -1.06534,-0.0125 -2.6343,0.27687 -3.48657,0.64311 l -1.54959,0.66588 1.54959,-0.0228 c 0.85227,-0.0125 2.42123,-0.30192 3.48657,-0.6431 z m 2.71177,-4.64876 c 2.08785,-0.53127 2.12727,-0.59292 0.3874,-0.60589 -1.06534,-0.008 -2.80863,0.26471 -3.87397,0.60589 -1.51781,0.48609 -1.60164,0.61721 -0.38739,0.6059 0.85227,-0.008 2.59555,-0.2806 3.87396,-0.6059 z m 23.101252,-3.95192 c 0.23409,-0.89514 0.76121,-1.42013 1.17137,-1.16664 0.41016,0.2535 0.94568,-0.06 1.19002,-0.69683 0.69739,-1.81737 -1.58776,-1.38025 -2.94973,0.56424 -1.35735,1.93791 -1.53362,2.92677 -0.52168,2.92677 0.37642,0 0.87594,-0.73239 1.11002,-1.62754 z m 7.89457,0.986 c -0.21081,-0.2108 0.86228,-1.22966 2.38463,-2.26412 2.89609,-1.96794 3.18181,-3.27307 0.38938,-1.77861 -1.20551,0.64517 -1.61595,0.63702 -1.61595,-0.0321 0,-1.56866 -2.11667,0.70084 -2.49384,2.67391 -0.21768,1.13873 0.0316,1.78419 0.68899,1.78419 0.56653,0 0.85759,-0.17248 0.64679,-0.38328 z m -19.662502,-2.26393 c 0.96375,-1.22887 0.93634,-1.25627 -0.29253,-0.29253 -1.29061,1.01217 -1.70104,1.64842 -1.06335,1.64842 0.16088,0 0.77103,-0.61015 1.35588,-1.35589 z m 57.333512,-1.74212 c -2.29002,-1.26233 -4.71038,-2.73781 -5.37857,-3.27884 -0.99569,-0.80617 -1.10148,-0.79524 -0.58625,0.0606 0.88106,1.46348 7.46988,5.54441 8.92429,5.52746 0.66231,-0.008 -0.66945,-1.04685 -2.95947,-2.30918 z m 10.7494,0.85946 c 0,-0.80505 -0.71456,-2.28684 -1.5879,-3.29287 l -1.58792,-1.82911 1.22042,2.51808 c 1.52452,3.14554 0.59169,3.27001 -4.15818,0.55479 -2.06816,-1.18223 -3.00107,-1.46173 -2.37962,-0.71293 1.16705,1.40621 6.07532,4.14031 7.52471,4.19155 0.53267,0.0188 0.96849,-0.62444 0.96849,-1.42951 z M 23.868558,186.82121 c -0.25971,-0.25971 -0.88983,0.34214 -1.40027,1.33744 -0.88723,1.73001 -0.86645,1.75079 0.4722,0.47221 0.77015,-0.7356 1.18778,-1.54994 0.92807,-1.80965 z m 103.224452,0.82271 c 0,-0.6392 0.54357,-1.16219 1.20792,-1.16219 0.71228,0 1.00598,0.39739 0.71576,0.96849 -0.27068,0.53267 0.20202,0.18207 1.05046,-0.77911 0.921,-1.0434 1.66218,-1.38889 1.83935,-0.85739 0.22216,0.6665 0.72553,0.66074 2.00298,-0.0229 1.28408,-0.68721 1.70919,-1.62531 1.71811,-3.79137 0.009,-2.13443 0.20446,-2.57788 0.75711,-1.71602 0.40989,0.6392 0.56082,1.8595 0.33541,2.71177 -0.3815,1.44248 -0.33482,1.4567 0.6754,0.20574 0.59687,-0.73911 1.31223,-1.11682 1.5897,-0.83936 0.27746,0.27747 0.50448,0.0772 0.50448,-0.44516 0,-0.52231 0.39951,-0.70275 0.88779,-0.40096 0.63105,0.39 0.72899,-0.084 0.33868,-1.63917 -0.50309,-2.00447 -0.43715,-2.09533 0.78669,-1.08405 1.21804,1.00649 1.30011,0.91596 0.93096,-1.02689 -0.45595,-2.39963 0.44788,-2.82596 1.64258,-0.77479 0.70843,1.21631 0.79216,1.17978 0.81329,-0.35474 0.0167,-1.21095 -0.95816,-2.28595 -3.33738,-3.68026 -4.15101,-2.43266 -4.56017,-2.43431 -8.09451,-0.0326 -1.56779,1.06534 -3.79347,1.93698 -4.94596,1.93698 -1.78115,0 -2.13184,0.36504 -2.33822,2.43386 -0.22831,2.28875 -0.6206,2.57073 -6.57952,4.72951 -6.28267,2.27607 -7.976,4.23089 -3.51961,4.06313 1.15963,-0.0436 2.52759,0.23064 3.03991,0.60956 0.51232,0.37892 1.8312,0.78771 2.93085,0.90842 1.09964,0.12071 2.22037,0.4405 2.4905,0.71063 0.9224,0.92234 2.55727,0.49335 2.55727,-0.67108 z m -44.937962,-0.83014 c 0,-0.2435 -0.52298,-0.96572 -1.16219,-1.60492 -0.96302,-0.96302 -1.16219,-0.97567 -1.16219,-0.0738 0,0.59863 0.23244,1.32085 0.51653,1.60493 0.63226,0.63227 1.80785,0.68025 1.80785,0.0738 z m 8.2772,-2.02691 c -0.24733,-0.61807 -0.43093,-0.43449 -0.4681,0.46811 -0.0336,0.81675 0.14947,1.27437 0.40693,1.01691 0.25746,-0.25746 0.28498,-0.92572 0.0611,-1.48502 z m 21.164912,0.88467 c 0.84876,-0.57436 0.53532,-0.64624 -1.16219,-0.26654 -2.84886,0.63725 -3.46728,1.08071 -1.48502,1.06487 0.81676,-0.006 2.00801,-0.36577 2.64721,-0.79833 z m -31.201532,-4.30667 c -0.25747,-0.25746 -0.92572,-0.28498 -1.48502,-0.0611 -0.61808,0.24733 -0.43449,0.43092 0.4681,0.4681 0.81676,0.0336 1.27437,-0.14948 1.01692,-0.40694 z m 78.452022,-0.88778 c -0.007,-0.83634 -0.22998,-1.0293 -0.5811,-0.50357 -0.31307,0.46877 -1.09221,1.05139 -1.73142,1.29472 -0.77656,0.29561 -0.58376,0.4627 0.5811,0.50357 1.1712,0.0411 1.73938,-0.38378 1.73142,-1.29472 z M 75.212698,175.5563 c -0.85048,-1.87453 -1.55399,-2.98424 -1.56335,-2.46603 -0.0205,1.1331 2.47428,6.50967 2.84739,6.13657 0.14426,-0.14427 -0.43355,-1.79601 -1.28404,-3.67054 z m 75.108552,2.77138 c -0.53904,-0.6495 -1.13963,-1.02135 -1.33464,-0.82634 -0.53731,0.53732 0.5544,2.00726 1.49078,2.00726 0.51376,0 0.45498,-0.44456 -0.15614,-1.18092 z m -86.761222,0.11359 c 0,-0.16088 -0.61015,-0.77103 -1.35589,-1.35588 -1.22886,-0.96374 -1.25627,-0.93634 -0.29253,0.29253 1.01217,1.29061 1.64842,1.70104 1.64842,1.06335 z m 95.828752,-1.40232 c -0.24733,-0.61808 -0.43093,-0.43449 -0.4681,0.4681 -0.0336,0.81676 0.14947,1.27437 0.40694,1.01692 0.25745,-0.25747 0.28497,-0.92572 0.0611,-1.48502 z m -79.170712,0.14527 c 0.26337,-0.42614 0.10962,-0.77479 -0.34167,-0.77479 -0.45128,0 -0.82052,0.34865 -0.82052,0.77479 0,0.42614 0.15375,0.77479 0.34167,0.77479 0.18792,0 0.55715,-0.34865 0.82052,-0.77479 z m 73.265962,-5.94249 c -1.65049,-3.15378 -2.21822,-3.81564 -1.88099,-2.19283 0.59006,2.83943 3.63301,8.54598 3.98846,7.47967 0.14109,-0.4233 -0.80727,-2.80237 -2.10747,-5.28684 z m 5.3007,1.68113 c 0.0188,-0.85227 -0.65003,-2.94421 -1.48624,-4.64876 l -1.52039,-3.09917 0.46136,2.61501 c 0.2807,1.59093 0.16934,2.43452 -0.28435,2.15413 -0.43293,-0.26757 -0.59301,0.33796 -0.38164,1.44362 0.20023,1.04748 0.67285,1.71367 1.05026,1.48042 0.37741,-0.23326 0.7107,0.72961 0.74065,2.1397 0.0454,2.13628 0.1655,2.3054 0.72034,1.01422 0.36623,-0.85227 0.68124,-2.2469 0.70001,-3.09917 z m -43.701,1.16219 c 0.26337,-0.42614 -0.0853,-0.77479 -0.77479,-0.77479 -0.68951,0 -1.03816,0.34865 -0.7748,0.77479 0.26337,0.42614 0.61203,0.77479 0.7748,0.77479 0.16276,0 0.51142,-0.34865 0.77479,-0.77479 z m 45.87015,-4.32901 c -0.23371,-2.26441 -0.80738,-4.74449 -1.27483,-5.5113 -0.66696,-1.09406 -0.77501,-0.56024 -0.50193,2.47978 0.19139,2.13068 0.37256,4.85335 0.40258,6.05037 0.0353,1.40661 0.36312,1.98573 0.92686,1.63732 0.56111,-0.34679 0.72068,-2.00769 0.44732,-4.65617 z M 51.771558,164.43366 c -2.64411,-5.30827 -4.8944,-9.56447 -5.00064,-9.45823 -0.44652,0.44652 2.32288,9.59857 3.75247,12.40078 1.45318,2.84848 4.69677,6.70884 5.63696,6.70884 0.23028,0 -1.74467,-4.34312 -4.38879,-9.65139 z m 37.66654,4.69272 c -0.74898,-2.37603 -1.50124,-4.18058 -1.67169,-4.01013 -0.17046,0.17046 0.30288,2.25394 1.05186,4.62996 0.74897,2.37603 1.50124,4.18058 1.67169,4.01013 0.17045,-0.17046 -0.30288,-2.25394 -1.05186,-4.62996 z m 43.415332,2.20876 c 3.47631,-2.27777 5.38596,-5.68626 5.37191,-9.58823 -0.0154,-4.2847 -2.35049,-9.39532 -3.52985,-7.7256 -0.56576,0.80099 -0.66113,0.61569 -0.36788,-0.71479 0.60272,-2.73454 -0.94659,-6.48975 -3.64571,-8.83645 -2.71153,-2.35747 -3.58889,-2.63448 -3.58889,-1.1331 0,0.56014 -2.01987,3.43656 -4.48861,6.39204 -6.87418,8.22954 -7.99418,10.01375 -6.94468,11.06324 1.60494,1.60494 6.45583,0.98626 10.99707,-1.40258 5.46845,-2.87657 4.87175,-1.56791 -0.7254,1.59092 -2.27311,1.28287 -4.7211,3.23015 -5.43998,4.3273 -0.71888,1.09715 -0.95201,1.77539 -0.51807,1.5072 0.43394,-0.26819 0.92323,-0.0849 1.08731,0.40735 0.47891,1.43672 5.95948,0.0328 8.05591,-2.06364 2.29086,-2.29086 2.37384,-1.34698 0.20478,2.32931 -2.32903,3.94741 -1.1878,4.30933 2.43465,0.77211 1.69672,-1.65681 3.08495,-2.82063 3.08495,-2.58629 0,0.64692 -2.40742,3.15631 -5.32858,5.5543 -2.48487,2.03983 -2.51773,2.13017 -0.65167,1.79179 1.08082,-0.19599 2.87755,-0.95419 3.99274,-1.68488 z m 13.6094,1.28616 c 0,-0.37892 -0.717,-1.51206 -1.59333,-2.51808 -1.49888,-1.72068 -1.54481,-1.72879 -0.77479,-0.13677 1.22783,2.53858 1.03361,2.72003 -1.50584,1.40683 -2.91391,-1.50684 -3.09022,-0.85236 -0.1937,0.71903 2.43455,1.32076 4.06766,1.53314 4.06766,0.52899 z m -66.244762,-1.24506 c -1.96543,-0.66484 -8.06145,-0.89765 -7.68813,-0.2936 0.23048,0.37292 2.22892,0.6505 4.44099,0.61686 2.21206,-0.0336 3.67328,-0.17911 3.24714,-0.32326 z m 30.449342,-0.54532 c 1.45331,-1.45331 1.10325,-1.9877 -1.03438,-1.57907 -3.89526,0.74463 -6.8522,-5.06923 -3.84681,-7.56348 1.91016,-1.58529 1.32094,-2.29911 -1.17855,-1.42779 -6.377568,2.22324 -4.50542,11.50009 2.32083,11.50009 1.54504,0 3.22755,-0.41839 3.73891,-0.92975 z m -33.675152,-1.34109 c -1.7742,-0.29001 -3.77898,-0.98637 -4.45506,-1.54747 -0.85678,-0.71106 -1.22925,-0.74911 -1.22925,-0.12555 0,1.23559 2.94986,2.30552 6.19835,2.24819 2.65272,-0.0468 2.64153,-0.0593 -0.51404,-0.57517 z m -2.28063,-2.82868 c 0.67329,-1.75457 0.58861,-2.03819 -0.42204,-1.41357 -0.49079,0.30331 -1.35883,-0.0865 -1.92898,-0.8662 -1.55358,-2.12466 -2.23707,-0.72181 -0.75235,1.54417 1.47803,2.25576 2.43315,2.48215 3.10337,0.7356 z m -31.20163,-3.94618 c -0.91336,-1.57067 -1.13392,-1.06794 -0.38626,0.88043 0.26571,0.69243 0.64633,1.09575 0.84581,0.89627 0.19949,-0.19949 -0.007,-0.999 -0.45955,-1.7767 z m 45.60552,-1.38174 c 0.57825,-1.47374 1.53707,-2.8659 2.13071,-3.0937 1.15076,-0.44159 0.63842,-1.97471 -0.65991,-1.97471 -0.42614,0 -0.57058,0.33043 -0.32098,0.73429 0.2496,0.40386 -0.22173,0.60419 -1.0474,0.44518 -2.58343,-0.49752 -3.85676,1.18499 -3.06533,4.05038 0.89014,3.22277 1.65133,3.1813 2.96291,-0.16144 z m 57.876582,0.98466 c -0.24733,-0.61808 -0.43093,-0.43449 -0.4681,0.4681 -0.0336,0.81676 0.14947,1.27437 0.40693,1.01692 0.25746,-0.25746 0.28498,-0.92572 0.0611,-1.48502 z m 13.49268,-1.96107 c -0.71673,-1.2314 -0.8059,-1.24085 -0.82692,-0.0877 -0.0129,0.71089 0.22764,1.93119 0.53465,2.71177 0.50978,1.29616 0.5815,1.30376 0.82691,0.0877 0.14779,-0.73235 -0.0928,-1.95265 -0.53464,-2.71178 z m -83.753282,2.0621 c 0.63921,-0.0895 -0.40676,-0.4114 -2.32438,-0.71523 -1.91761,-0.30384 -4.18388,-0.84552 -5.03615,-1.20373 -1.36025,-0.57173 -1.42438,-0.49727 -0.52483,0.60943 1.0296,1.26669 3.39815,1.96751 5.56098,1.64541 0.63921,-0.0952 1.68518,-0.24634 2.32438,-0.33588 z m 8.14803,-2.22227 c -0.46539,-2.11895 -0.25581,-2.37356 3.21908,-3.91067 2.0766,-0.91858 3.82854,-1.30918 3.9699,-0.8851 0.14106,0.42317 2.54641,-0.12045 5.435784,-1.2285 2.850518,-1.09316 7.242968,-2.7072 9.761008,-3.58676 2.51803,-0.87957 4.2147,-1.72039 3.77036,-1.8685 -0.44433,-0.14811 -4.68828,1.15859 -9.43099,2.90377 -4.742718,1.74518 -8.943602,2.975 -9.335282,2.73293 -0.39168,-0.24207 -2.64339,0.41395 -5.00381,1.45784 -4.2652,1.88628 -4.28655,1.91262 -3.4631,4.27474 1.05204,3.01791 1.73095,3.08741 1.07705,0.11025 z m -39.48273,-0.38192 c 0.82651,-0.60436 1.2912,-1.31039 1.03263,-1.56895 -0.25856,-0.25857 -1.30398,0.22431 -2.32316,1.07306 -2.10493,1.75295 -1.00606,2.1752 1.29053,0.49589 z m 108.982832,-2.14137 c -0.48513,-0.48513 -0.59311,0.0243 -0.30485,1.43819 0.33063,1.62161 0.52545,1.81644 0.75124,0.75124 0.16767,-0.79101 -0.0332,-1.77625 -0.44639,-2.18943 z m -103.894932,0.70922 c -0.7652,-0.75949 -0.8542,-0.6705 -0.43373,0.43373 0.29096,0.76412 0.72419,1.19413 0.96274,0.95558 0.23855,-0.23855 4.9e-4,-0.86373 -0.52901,-1.38931 z m 29.03219,0.0665 1.47597,-1.68973 -1.91568,1.30233 c -2.02373,1.3758 -7.43523,1.7357 -9.20802,0.61241 -0.68463,-0.43379 -0.85839,-1.27436 -0.49809,-2.40954 0.3423,-1.07848 0.26184,-1.5632 -0.21096,-1.27099 -0.42036,0.25979 -0.94827,1.17592 -1.17314,2.03583 -0.55545,2.12405 1.29094,3.05712 6.10637,3.08586 3.10744,0.0185 4.2617,-0.33605 5.42355,-1.66617 z m 82.442842,-8.1886 c -0.81685,-1.30166 -0.79711,0.057 0.12664,8.71614 0.0909,0.85227 0.29111,-0.45507 0.44487,-2.90519 0.15375,-2.45013 -0.10343,-5.06505 -0.57151,-5.81095 z m -119.319102,8.32874 c 0,-0.42614 -0.15375,-0.7748 -0.34167,-0.7748 -0.18792,0 -0.55715,0.34866 -0.82052,0.7748 -0.26337,0.42613 -0.10962,0.77479 0.34167,0.77479 0.45128,0 0.82052,-0.34866 0.82052,-0.77479 z m 5.80502,-4.6602 c -1.36747,-2.64442 -1.02156,-6.19455 0.60178,-6.176 1.40002,0.016 12.28754,6.05171 14.3189,7.93797 l 1.74328,1.61876 v -1.73685 c 0,-1.43497 0.30301,-1.64869 1.74329,-1.22955 0.9588,0.27901 -0.1045,-0.7644 -2.36289,-2.31869 -5.09729,-3.50811 -23.22966,-12.45803 -23.89393,-11.79377 -0.63719,0.63719 1.28073,5.27152 1.99813,4.82815 0.30169,-0.18646 1.89615,2.42504 3.54325,5.80331 1.6471,3.37828 3.12879,6.00826 3.29265,5.84441 0.16385,-0.16385 -0.27915,-1.41384 -0.98446,-2.77774 z m 12.01521,-1.47578 c -1.06534,-0.79097 -4.11663,-2.57676 -6.78064,-3.96842 -4.80328,-2.50919 -4.85816,-2.518 -6.58573,-1.0554 l -1.74209,1.47489 1.47597,-1.74328 c 1.15697,-1.36651 1.23222,-1.74329 0.34817,-1.74329 -1.90257,0 -5.29826,-1.87921 -5.30466,-2.93565 -0.004,-0.63229 0.62354,-0.41212 1.71004,0.6001 0.94384,0.87932 2.18008,1.42071 2.74721,1.20309 1.02596,-0.3937 14.66306,6.11104 17.61829,8.40372 l 1.54959,1.20218 -1.54959,1e-4 c -0.85227,4e-5 -2.42122,-0.64707 -3.48656,-1.43804 z m 19.0564,3.69189 c 0.36581,-0.59189 0.20972,-0.68245 -0.46138,-0.26769 -0.67614,0.41788 -0.82733,0.32444 -0.45357,-0.28032 0.30835,-0.49892 0.90048,-0.69711 1.31584,-0.4404 0.41536,0.2567 1.17574,0.14152 1.68974,-0.25596 0.51401,-0.39748 4.94411,-2.18019 9.84467,-3.96158 19.100312,-6.94311 27.765422,-10.8118 27.117732,-12.10717 -0.21306,-0.42614 -0.56822,-0.71452 -0.78923,-0.64085 -1.37208,0.45736 -4.84775,0.9555 -4.05322,0.58092 0.53267,-0.25113 0.96849,-0.75841 0.96849,-1.1273 0,-0.36887 -1.25798,-0.14507 -2.79552,0.49736 -1.53753,0.64242 -2.99026,0.97329 -3.2283,0.73525 -0.23803,-0.23803 0.0611,-0.43812 0.66484,-0.44464 0.92671,-0.01 0.93088,-0.11748 0.0267,-0.69009 -0.84122,-0.53278 -0.7166,-0.79066 0.58109,-1.20254 0.90858,-0.28837 1.65196,-0.82742 1.65196,-1.19788 0,-0.81494 -13.917468,5.19497 -20.919392,9.03352 -6.40887,3.51342 -12.51638,7.96942 -12.02122,8.7706 0.60376,0.9769 -1.38208,2.17327 -3.08724,1.85991 -0.85227,-0.15662 -2.42122,-0.044 -3.48656,0.25029 -1.90206,0.5254 -0.92566,0.7985 5.95891,1.66671 0.50752,0.064 1.17154,-0.28617 1.4756,-0.77814 z m 63.988442,-0.82296 c -0.50426,-0.50426 -0.91683,-1.40871 -0.91683,-2.00989 0,-0.6914 0.55996,-0.42092 1.5238,0.73605 1.72935,2.07584 1.94181,1.24182 0.86491,-3.39527 -0.39381,-1.69578 -0.38614,-2.72242 0.0185,-2.47235 1.31041,0.80987 0.68749,-0.45703 -1.34793,-2.74144 l -2.0399,-2.28944 -2.21689,2.37318 c -1.67047,1.78826 -2.09897,2.84301 -1.73848,4.27932 0.5595,2.22921 5.48996,7.7164 6.25031,6.95605 0.28565,-0.28565 0.10679,-0.93194 -0.39748,-1.43621 z m -47.199662,-4.1285 c 19.274522,-7.31938 25.460482,-9.81113 25.143562,-10.12803 -0.37631,-0.37631 -37.933532,13.65129 -38.868412,14.51733 -1.3332,1.23501 0.23309,0.7341 13.72485,-4.3893 z m 64.103052,0.57048 c 0,-2.91491 -0.4253,-5.03058 -1.20709,-6.00464 -1.13802,-1.41792 -1.182,-1.34881 -0.76868,1.2078 0.24112,1.49147 0.65533,4.19356 0.92045,6.00464 0.26514,1.81108 0.61104,3.29287 0.76869,3.29287 0.15765,0 0.28663,-2.0253 0.28663,-4.50067 z m -118.091812,1.12081 c 0.0816,-0.55585 -0.28744,-1.01063 -0.82004,-1.01063 -0.56504,0 -0.81032,0.60443 -0.58889,1.45118 0.39775,1.52097 1.15583,1.28393 1.40893,-0.44055 z m 30.20292,0.79451 c 1.42791,0.54793 1.41857,-0.50632 -0.0227,-2.56402 -0.62416,-0.89111 -0.97645,-1.77859 -0.78287,-1.97217 0.53333,-0.53333 -3.22003,-3.9156 -10.49737,-9.45952 -6.32399,-4.81763 -8.3592,-5.83451 -6.09666,-3.04615 0.93501,1.1523 0.9239,1.2412 -0.0833,0.66648 -0.6392,-0.36474 -2.09052,-1.30535 -3.22514,-2.09025 l -2.06295,-1.42707 0.20565,1.87345 c 0.15373,1.40038 -0.0911,1.75956 -0.96962,1.42245 -0.80988,-0.31079 -0.98625,-0.14515 -0.56728,0.53276 0.46225,0.74792 0.26054,0.80459 -0.84139,0.23637 -1.64682,-0.84922 -3.61869,-0.40994 -2.95807,0.65897 0.24087,0.38973 -0.0185,0.71547 -0.57627,0.72385 -0.55782,0.008 3.51832,2.39095 9.05809,5.29462 5.53977,2.90366 11.81229,6.39327 13.93894,7.75468 2.12664,1.36141 3.97962,2.13634 4.11772,1.72204 0.13809,-0.41429 0.75154,-0.56121 1.36321,-0.32649 z m 65.085492,-1.6687 c -0.6215,-1.48747 -1.51446,-3.31791 -1.98436,-4.06766 -0.71517,-1.14108 -0.76923,-1.04758 -0.33183,0.57378 0.62981,2.33461 2.54244,6.19834 3.0683,6.19834 0.20785,0 -0.1306,-1.21701 -0.75211,-2.70446 z m 14.73853,0.8935 c -1.15915,-0.99603 -2.20669,-2.30349 -2.32786,-2.90548 -0.4756,-2.36277 -1.44772,-3.80627 -2.56335,-3.80627 -0.99693,0 -0.97004,0.31269 0.1832,2.13068 1.84349,2.90611 5.15118,6.39203 6.06522,6.39203 0.41269,0 -0.19805,-0.81493 -1.35721,-1.81096 z m 4.48995,-0.31972 c -0.76356,-3.2198 -2.59312,-7.45539 -3.03115,-7.01735 -0.21307,0.21306 0.14016,1.65003 0.78496,3.19324 0.6448,1.54322 1.17236,3.51437 1.17236,4.38032 0,0.86597 0.3553,1.57447 0.78955,1.57447 0.46729,0 0.58333,-0.86964 0.28428,-2.13068 z m -81.652252,0.66693 c 0,-0.37892 -0.70235,-1.51205 -1.56077,-2.51808 l -1.56078,-1.82911 1.36708,2.51318 c 1.43368,2.63562 1.75447,2.97096 1.75447,1.83401 z m 14.17583,-9.2705 c 2.21748,-1.25631 8.164044,-4.11217 13.214562,-6.34635 7.38245,-3.26574 9.31254,-3.85216 9.84471,-2.99109 0.45461,0.73558 0.12655,1.38735 -1.04745,2.08097 -1.6851,0.99558 -1.68187,1.00248 0.22759,0.48578 1.06534,-0.28828 2.17972,-0.9032 2.4764,-1.36649 0.34438,-0.53779 0.72773,-0.35162 1.06024,0.51492 0.35702,0.93037 1.00223,1.20447 2.05138,0.87148 2.58005,-0.81887 6.03387,3.15872 6.03387,6.94892 0,2.90259 0.0894,3.03085 1.28143,1.83881 1.75928,-1.75928 1.51291,-4.89797 -0.83878,-10.68552 -1.09573,-2.69659 -1.99223,-6.41175 -1.99223,-8.25589 v -3.35299 l -6.00465,-0.0274 c -3.99563,-0.0183 -6.65271,-0.42501 -7.94162,-1.2157 -1.13712,-0.69756 -1.29709,-0.93921 -0.3874,-0.58518 2.90957,1.13235 15.50647,-2e-5 14.69033,-1.32055 -0.24647,-0.39882 0.63901,-0.7251 1.96771,-0.7251 1.32871,0 2.22449,-0.30961 1.99062,-0.68802 -0.23388,-0.37841 0.53003,-0.86613 1.69755,-1.08382 4.26889,-0.796 5.79307,-1.28956 6.99931,-2.26656 1.03692,-0.83986 1.12586,-0.81384 0.562,0.16443 -0.36842,0.63921 0.6069,-0.0581 2.1674,-1.54958 1.5605,-1.49148 2.84632,-3.23476 2.85738,-3.87396 0.0172,-0.99546 0.12093,-1.00288 0.72286,-0.0517 0.54471,0.86079 0.96344,0.51231 1.86192,-1.54959 1.31103,-3.00862 1.71356,-1.94971 0.4861,1.27876 -0.69393,1.82518 -0.64676,1.97602 0.35739,1.14266 0.63627,-0.52806 1.36819,-1.62594 1.62647,-2.43973 0.25829,-0.81379 0.83747,-1.47962 1.28707,-1.47962 0.48342,0 0.39468,0.50941 -0.21718,1.24666 -0.90337,1.0885 -0.35023,1.87146 4.36019,6.17168 5.24496,4.78823 7.75367,6.36432 8.67065,5.44733 0.24602,-0.24601 -0.39041,-1.12128 -1.41427,-1.94506 -1.02386,-0.82378 -3.64947,-3.22085 -5.83468,-5.32681 l -3.97312,-3.82904 2.60851,-5.33743 c 2.22491,-4.552556 2.57165,-6.002706 2.35785,-9.861356 -0.15662,-2.82686 -0.66198,-4.78428 -1.34716,-5.21799 -1.79051,-1.13336 -2.36728,-0.81882 -1.49324,0.81435 0.68388,1.27784 0.60914,1.45124 -0.45027,1.0447 -1.07667,-0.41316 -1.13845,-0.24115 -0.40532,1.12869 0.4757,0.88888 0.84951,1.90055 0.83068,2.24817 -0.0188,0.34761 -0.7453,-0.71602 -1.61436,-2.36363 -2.00711,-3.80515 -2.67694,-3.14283 -4.59861,4.54703 -0.82897,3.31728 -2.29024,7.446926 -3.24725,9.176986 -3.77633,6.8267 -13.0275,11.19856 -21.76455,10.28536 -9.55126,-0.99828 -16.67126,-6.37189 -20.143628,-15.20276 -1.63937,-4.169216 -1.74798,-4.266566 -5.023254,-4.502396 -4.05671,-0.2921 -5.37257,0.67373 -5.97626,4.386556 -1.63364,10.0472 -8.25033,15.6117 -18.56367,15.6117 -8.25554,0 -13.13882,-2.95455 -17.50963,-10.59394 -2.09255,-3.65739 -2.58342,-4.10918 -3.22297,-2.96635 -0.48244,0.86207 -0.48562,1.5244 -0.009,1.83697 0.4101,0.26886 0.97416,1.42326 1.25349,2.56533 0.27932,1.14208 0.97769,2.54634 1.55193,3.12058 0.57424,0.57424 1.46972,2.33379 1.98995,3.9101 0.52023,1.57631 1.24556,2.78697 1.61185,2.69036 0.36628,-0.0966 1.20248,0.52166 1.8582,1.37394 l 1.19224,1.54958 0.0737,-1.54958 c 0.068,-1.428 0.12873,-1.4128 0.77446,0.19369 0.74351,1.84974 2.30024,2.38851 2.30024,0.7961 0,-0.52095 0.55916,-0.14888 1.24258,0.82684 0.68342,0.97571 1.70389,1.597 2.26773,1.38064 0.56383,-0.21637 1.44199,0.10887 1.95146,0.72274 1.13573,1.36847 2.60161,1.48899 1.79576,0.14765 -0.44337,-0.73799 -0.31595,-0.76347 0.53537,-0.10704 2.1081,1.62549 8.37431,1.94357 11.04889,0.56086 2.13846,-1.10555 2.33242,-1.11453 1.46418,-0.0678 -0.81791,0.98605 -0.81791,1.26924 0,1.54949 0.55046,0.18861 -2.05122,0.32067 -5.7815,0.29347 -6.15063,-0.0449 -6.94443,0.12066 -8.52272,1.77715 -1.597,1.67613 -1.61422,1.78229 -0.20903,1.28846 1.46802,-0.51591 1.4639,-0.4643 -0.0995,1.24813 -0.89698,0.98247 -1.5205,2.45967 -1.3856,3.28269 0.1349,0.82301 -0.111,2.16211 -0.54646,2.97576 -1.24084,2.31853 0.56887,5.76454 6.05483,11.52946 2.69779,2.83498 4.90508,5.53635 4.90508,6.00304 0,0.46669 2.10808,-0.70336 4.68463,-2.6001 2.57654,-1.89674 6.49893,-4.47652 8.71642,-5.73284 z m 12.560002,-21.79816 c -0.27144,-0.4392 0.0396,-0.56909 0.72905,-0.3045 1.34227,0.51507 1.58786,1.07042 0.47337,1.07042 -0.40098,0 -0.94207,-0.34467 -1.20242,-0.76592 z M 91.418278,112.05836 c -2.24595,-2.83574 -2.44096,-3.49188 -1.99812,-6.7228 0.52902,-3.85958 2.26062,-6.405396 4.35678,-6.405396 1.5776,0 3.873964,2.377056 3.873964,4.010126 0,0.64698 0.69008,1.97199 1.5335,2.94447 1.635228,1.88543 1.445768,3.11771 -0.47936,3.11771 -0.65583,0 -1.71888,1.37493 -2.396194,3.09917 -0.66956,1.70455 -1.48386,3.09917 -1.80954,3.09917 -0.32569,0 -1.71215,-1.4141 -3.08103,-3.14245 z m 3.12159,-3.29531 c -0.007,-0.55632 -0.30122,-0.46512 -0.7405,0.22965 -0.58256,0.92139 -0.70415,0.82738 -0.60649,-0.46893 0.0672,-0.89174 0.61758,-1.58466 1.22315,-1.53982 1.695,0.12553 1.73002,-6.78173 0.036,-7.111066 -0.69402,-0.13493 -1.82947,0.322286 -2.52323,1.016056 -2.40144,2.40144 -0.57315,10.77213 2.00479,9.17887 0.33995,-0.2101 0.61275,-0.79724 0.60623,-1.30476 z m 51.209342,-3.31171 c 0.0372,-0.90259 0.22076,-1.08618 0.46809,-0.4681 0.22382,0.55929 0.1963,1.22755 -0.0611,1.48502 -0.25746,0.25745 -0.44057,-0.20016 -0.40693,-1.01692 z m -25.62933,45.38993 c 0,-0.42613 -0.36924,-0.77479 -0.82052,-0.77479 -0.45129,0 -0.60504,0.34866 -0.34167,0.77479 0.26337,0.42614 0.6326,0.77479 0.82052,0.77479 0.18792,0 0.34167,-0.34865 0.34167,-0.77479 z m 26.09742,-0.92006 c -0.24733,-0.61808 -0.43092,-0.43449 -0.46809,0.4681 -0.0336,0.81676 0.14947,1.27437 0.40693,1.01692 0.25746,-0.25747 0.28498,-0.92573 0.0611,-1.48502 z M 36.442288,149.29169 c 0,-0.42614 -0.34866,-0.7748 -0.77479,-0.7748 -0.42614,0 -0.7748,0.34866 -0.7748,0.7748 0,0.42613 0.34866,0.77479 0.7748,0.77479 0.42613,0 0.77479,-0.34866 0.77479,-0.77479 z M 115.66,148.77695 c -0.53533,-0.21582 -0.74829,-0.75652 -0.47325,-1.20154 0.27784,-0.44955 0.0432,-0.65686 -0.52784,-0.46649 -1.84886,0.61628 -1.72566,2.18562 0.16656,2.1216 0.99431,-0.0336 1.36985,-0.23775 0.83453,-0.45357 z m 2.35196,-1.06558 c -0.22729,-0.86917 -0.58638,-1.4072 -0.79797,-1.1956 -0.41916,0.41915 0.32122,2.77592 0.87206,2.77592 0.18655,0 0.15321,-0.71115 -0.0741,-1.58032 z m 1.78902,-1.32124 c -0.83329,-0.83328 -1.27566,0.33375 -0.69072,1.82217 0.54871,1.39623 0.59016,1.39865 0.86152,0.0503 0.15679,-0.77909 0.0799,-1.62168 -0.1708,-1.87241 z m 31.66076,0.50518 c -0.68157,-1.31801 -1.43506,-2.20054 -1.67442,-1.96117 -0.44552,0.44551 1.82063,4.35755 2.52421,4.35755 0.21419,0 -0.16822,-1.07838 -0.84979,-2.39638 z m 11.27173,-1.42715 c 0,-1.6664 -1.60083,-4.75897 -2.25436,-4.35507 -0.79982,0.49432 0.68909,5.07943 1.64944,5.07943 0.33271,0 0.60492,-0.32597 0.60492,-0.72436 z M 36.442288,143.86814 c 0,-0.86088 -0.51653,-1.54959 -1.16219,-1.54959 -1.17955,0 -1.5893,1.639 -0.64566,2.58264 0.98227,0.98228 1.80785,0.51052 1.80785,-1.03305 z m 83.290192,0.77479 c 1.02175,-0.43906 1.15372,-0.68038 0.3874,-0.70847 -0.6392,-0.0234 -1.68517,0.29538 -2.32438,0.70847 -1.4163,0.91528 -0.19299,0.91528 1.93698,0 z m 15.53284,-0.58109 c -0.41387,-1.08715 -0.32281,-1.16394 0.45946,-0.3874 2.08496,2.06964 3.08442,1.11493 2.83888,-2.71177 -0.18114,-2.82295 -0.50689,-3.60821 -1.39834,-3.37092 -4.11479,1.09526 -5.10146,0.8982 -7.55423,-1.50874 l -2.51808,-2.47104 0.003,2.22261 c 0.002,1.22243 0.71769,3.39507 1.59134,4.82807 1.75034,2.87102 2.92394,2.85484 1.52496,-0.021 -0.84771,-1.74264 -0.83578,-1.75227 0.32238,-0.26006 1.80918,2.33103 4.41859,5.03616 4.85796,5.03616 0.21393,0 0.15668,-0.61015 -0.12722,-1.35589 z M 27.919568,142.27282 c 0,-0.40098 -0.52299,-0.72906 -1.16219,-0.72906 -1.19815,0 -1.53928,0.91422 -0.66672,1.78679 0.619,0.619 1.82891,-0.0807 1.82891,-1.05773 z m 116.908202,0.23943 c -0.95438,-1.2324 -0.90092,-1.22912 0.58695,0.036 1.61451,1.37276 1.64415,1.3535 2.16149,-1.40414 0.50583,-2.69631 -0.67123,-8.12302 -1.76189,-8.12302 -0.29058,0 -0.9862,0.73316 -1.54582,1.62926 -0.75969,1.21647 -1.59212,1.54492 -3.28554,1.29637 -1.24743,-0.18308 -2.26806,0.002 -2.26806,0.40998 0,1.24386 3.13658,5.90386 4.51529,6.70834 2.02681,1.18266 2.7482,0.93307 1.59758,-0.55274 z m 10.15778,-2.48381 c 0,0.54933 0.20629,0.7925 0.45841,0.54038 0.56135,-0.56135 -0.90858,-3.33651 -1.67318,-3.1589 -0.8927,0.20738 -1.81532,2.06921 -1.37691,2.77858 0.2229,0.36064 0.8972,0.24744 1.49847,-0.25157 0.84493,-0.70124 1.09321,-0.68045 1.09321,0.0915 z m -3.60177,-2.44602 c 1.39317,0.12886 2.6767,-0.95229 2.29902,-1.9365 -0.3556,-0.92667 -0.61588,-0.88201 -1.50256,0.25782 -0.81067,1.04213 -0.97013,1.08138 -0.65323,0.16078 0.27398,-0.79591 -0.27489,-1.53415 -1.58414,-2.13068 -2.76087,-1.25794 -2.74715,-1.28038 -1.29561,2.11852 0.712,1.66723 1.50956,2.68342 1.77236,2.25821 0.2628,-0.42522 0.69667,-0.75288 0.96416,-0.72815 z M 30.631338,136.88439 c 0,-1.66077 -2.25129,-1.42089 -2.57782,0.27467 -0.19941,1.03543 0.11615,1.35098 1.15157,1.15158 0.78444,-0.15107 1.42625,-0.79288 1.42625,-1.42625 z m 127.453382,0.0106 c -0.98268,-0.85227 -1.96171,-1.54958 -2.17562,-1.54958 -0.21391,0 0.24213,0.69731 1.01343,1.54958 0.7713,0.85228 1.75032,1.54959 2.17562,1.54959 0.42529,0 -0.0308,-0.69731 -1.01343,-1.54959 z m -97.653902,-1.49345 c 0.4396,-0.8214 0.59935,-2.01446 0.35499,-2.65124 -0.24435,-0.63677 -0.0565,-1.88232 0.41744,-2.7679 1.19105,-2.22549 -0.38623,-2.11031 -1.8235,0.13316 -1.61373,2.51892 -1.92528,6.77943 -0.49574,6.77943 0.41115,0 1.10721,-0.67205 1.54681,-1.49345 z m 3.11734,-1.07035 c 0.006,-0.34475 -0.33679,-0.41134 -0.76292,-0.14797 -0.42614,0.26337 -0.76946,1.06842 -0.76293,1.78901 0.0102,1.12908 0.11566,1.14954 0.76293,0.14797 0.41308,-0.6392 0.7564,-1.44426 0.76292,-1.78901 z m 72.559712,1.40756 c 0.63594,-0.63594 0.93976,-1.50652 0.67517,-1.93464 -0.31746,-0.51366 0.22833,-0.50869 1.60477,0.0146 4.01429,1.52623 7.509,-3.02546 5.4454,-7.09238 -0.47133,-0.92887 -2.15559,-2.50698 -3.74283,-3.50692 l -2.88587,-1.81807 0.46905,2.51696 c 0.25798,1.38432 0.46478,2.69128 0.45955,2.90435 -0.061,2.49057 -0.4844,3.24831 -2.17353,3.89052 -2.41653,0.91877 -6.04033,-0.70597 -7.39916,-3.31744 l -0.90292,-1.73527 1.84843,1.65423 c 5.00172,4.47622 8.972,1.76961 7.18403,-4.89746 -0.37694,-1.40553 -1.00123,-1.68714 -3.66969,-1.65534 -3.55487,0.0424 -7.47029,1.70248 -7.4887,3.17519 -0.008,0.61783 -0.26238,0.55251 -0.73032,-0.18735 -0.57516,-0.9094 -0.88182,-0.70621 -1.53771,1.01893 -1.02895,2.70634 -1.0249,3.55728 0.0313,6.58713 1.09522,3.14178 2.80701,3.1099 4.19264,-0.0781 l 1.09446,-2.51808 0.0303,2.1659 c 0.0334,2.38665 3.08634,5.96942 5.0866,5.96942 0.68902,0 1.77307,-0.52031 2.409,-1.15624 z m -93.467242,-0.39334 c 0,-0.42614 -0.34866,-0.77479 -0.77479,-0.77479 -0.42614,0 -0.7748,0.34865 -0.7748,0.77479 0,0.42614 0.34866,0.77479 0.7748,0.77479 0.42613,0 0.77479,-0.34865 0.77479,-0.77479 z m -19.75721,-3.15312 c 0,-0.59785 -0.61015,-1.20451 -1.35589,-1.34813 -1.33554,-0.2572 -1.88766,1.38684 -0.82322,2.45129 0.81215,0.81214 2.17911,0.12013 2.17911,-1.10316 z m 15.88325,0.82875 c 0,-0.42613 -0.34866,-0.77479 -0.7748,-0.77479 -0.42613,0 -0.77479,0.34866 -0.77479,0.77479 0,0.42614 0.34866,0.77479 0.77479,0.77479 0.42614,0 0.7748,-0.34865 0.7748,-0.77479 z m 24.6158,-1.40431 c 0.46484,-1.39452 -1.13662,-1.10148 -1.67706,0.30686 -0.28956,0.75458 -0.1164,1.10879 0.44978,0.92007 0.50633,-0.16877 1.0586,-0.7209 1.22728,-1.22693 z m 89.138892,-1.50116 c 0.13617,-0.95881 -0.14882,-1.74328 -0.63331,-1.74328 -0.52512,0 -0.70623,0.70406 -0.44843,1.74328 0.23785,0.95881 0.23229,1.30746 -0.0123,0.77479 -0.24465,-0.53267 -1.3301,-0.96849 -2.4121,-0.96849 -1.68811,0 -1.826,0.17024 -0.97173,1.19958 1.43044,1.72357 4.17793,1.1064 4.47792,-1.00588 z M 36.442288,129.87614 c 0,-0.40098 -0.52299,-0.72906 -1.16219,-0.72906 -1.19815,0 -1.53928,0.91422 -0.66673,1.78679 0.61901,0.619 1.82892,-0.0807 1.82892,-1.05773 z m -7.74793,-0.29594 c 0,-0.18791 -0.34865,-0.55715 -0.77479,-0.82052 -0.42614,-0.26336 -0.77479,-0.10961 -0.77479,0.34167 0,0.45129 0.34865,0.82052 0.77479,0.82052 0.42614,0 0.77479,-0.15375 0.77479,-0.34167 z m 30.57648,-1.17716 c 0.75599,-0.83536 1.75459,-1.44551 2.21912,-1.35589 0.48606,0.0938 0.9037,-1.2349 0.98382,-3.12992 0.0766,-1.81108 -0.0611,-3.29287 -0.30582,-3.29287 -0.24477,0 -1.25199,0.75809 -2.23826,1.68464 -1.8989,1.78393 -2.45889,3.45955 -0.82473,2.46781 0.53267,-0.32327 -0.008,0.70212 -1.20162,2.27865 -2.32345,3.06895 -1.19589,4.18009 1.36749,1.34758 z m 102.687842,0.32577 c 0,-0.97066 -3.07873,-6.34817 -4.13757,-7.22692 -0.63341,-0.52568 -2.08164,-1.12442 -3.21828,-1.33054 -2.00572,-0.36371 -2.03054,-0.32322 -0.84196,1.37372 1.63595,2.33564 1.57611,3.80054 -0.13121,3.2121 -1.10122,-0.37954 -1.06484,-0.23408 0.1937,0.77446 2.86583,2.29658 3.36662,1.09139 1.5562,-3.74508 -0.31903,-0.85227 0.70897,0.45519 2.28446,2.90547 2.45248,3.81425 4.29466,5.54581 4.29466,4.03679 z m -11.85545,-1.64022 c 0.55167,-1.43762 -1.18212,-5.00535 -2.67191,-5.49819 -0.53267,-0.17621 -0.96849,0.24261 -0.96849,0.93069 0,0.68809 -0.50216,1.44377 -1.1159,1.67929 -0.88586,0.33993 -0.94008,0.8141 -0.26303,2.30005 0.99822,2.19086 4.25775,2.57281 5.01933,0.58816 z M 30.243948,126.04791 c 0,-0.42614 -0.34866,-0.77479 -0.7748,-0.77479 -0.42613,0 -0.77479,0.34865 -0.77479,0.77479 0,0.42613 0.34866,0.77479 0.77479,0.77479 0.42614,0 0.7748,-0.34866 0.7748,-0.77479 z m 17.82023,-1.18676 c 0,-0.55598 0.21163,-1.56238 0.47029,-2.23644 0.30861,-0.80422 0.0422,-1.22556 -0.7748,-1.22556 -0.68479,0 -1.24508,-0.34865 -1.24508,-0.77479 0,-1.28656 -1.44862,-0.87576 -3.24444,0.92007 -1.09083,1.09082 -1.36696,1.80416 -0.7748,2.00154 0.50604,0.16868 0.92007,0.91457 0.92007,1.65752 0,1.06021 0.50008,1.27743 2.32438,1.00969 1.27841,-0.18763 2.32438,-0.79605 2.32438,-1.35203 z m 4.64875,0.41197 c 0,-0.42614 -0.34865,-0.7748 -0.77479,-0.7748 -0.42614,0 -0.77479,0.34866 -0.77479,0.7748 0,0.42613 0.34865,0.77479 0.77479,0.77479 0.42614,0 0.77479,-0.34866 0.77479,-0.77479 z m -34.86566,-1.11646 c 0,-0.18792 -0.34866,-0.55716 -0.7748,-0.82053 -0.42613,-0.26336 -0.77479,-0.10961 -0.77479,0.34167 0,0.45129 0.34866,0.82052 0.77479,0.82052 0.42614,0 0.7748,-0.15375 0.7748,-0.34166 z m 150.656252,-1.2741 c -0.24946,-0.40364 -0.78382,-0.52978 -1.18747,-0.28032 -0.40364,0.24946 -0.52978,0.78382 -0.28032,1.18747 0.24946,0.40364 0.78382,0.52978 1.18747,0.28032 0.40364,-0.24946 0.52978,-0.78382 0.28032,-1.18747 z M 24.820398,121.35342 c 0,-0.40098 -0.52299,-0.72906 -1.16219,-0.72906 -1.19815,0 -1.53928,0.91422 -0.66672,1.78679 0.619,0.619 1.82891,-0.0807 1.82891,-1.05773 z m 118.867282,1.12503 c 1.37075,-0.52601 1.66943,-3.8127 0.41683,-4.58684 -0.4448,-0.2749 -1.22928,-0.152 -1.74328,0.27311 -0.514,0.42512 -1.98052,0.89737 -3.25893,1.04945 l -2.32438,0.27651 2.71177,1.72613 c 1.49148,0.94937 2.77043,1.72744 2.84211,1.72903 0.0717,0.002 0.68183,-0.20873 1.35588,-0.46739 z m 6.99378,-5.46706 c -0.81141,-2.29585 -2.41078,-3.27692 -2.41078,-1.47879 0,0.6323 0.25401,0.99264 0.56447,0.80077 0.56055,-0.34645 1.50164,1.42379 1.50164,2.82467 0,0.40223 -1.08434,0.17059 -2.40965,-0.51476 -1.33371,-0.68968 -2.1632,-0.84731 -1.8577,-0.353 0.81937,1.32577 3.77133,2.27455 4.61202,1.48233 0.45956,-0.43306 0.45956,-1.46091 0,-2.76122 z m 25.99828,1.28859 c 0,-0.42613 -0.15375,-0.77479 -0.34167,-0.77479 -0.18792,0 -0.55715,0.34866 -0.82052,0.77479 -0.26337,0.42614 -0.10962,0.7748 0.34167,0.7748 0.45128,0 0.82052,-0.34866 0.82052,-0.7748 z M 19.396848,117.52519 c 0,-0.42614 -0.34866,-0.77479 -0.77479,-0.77479 -0.42614,0 -0.77479,0.34865 -0.77479,0.77479 0,0.42614 0.34865,0.77479 0.77479,0.77479 0.42613,0 0.77479,-0.34865 0.77479,-0.77479 z m 142.561832,-0.82052 c 0,-0.40099 -0.34866,-0.72907 -0.77479,-0.72907 -0.42614,0 -0.7748,0.54357 -0.7748,1.20792 0,0.66436 0.34866,0.99243 0.7748,0.72907 0.42613,-0.26337 0.77479,-0.80693 0.77479,-1.20792 z m 6.58574,0.82052 c 0.26336,-0.42614 0.10961,-0.77479 -0.34167,-0.77479 -0.45129,0 -0.82052,0.34865 -0.82052,0.77479 0,0.42614 0.15375,0.77479 0.34167,0.77479 0.18791,0 0.55715,-0.34865 0.82052,-0.77479 z M 12.423718,115.9756 c 0,-0.42613 -0.34866,-0.77479 -0.7748,-0.77479 -0.42613,0 -0.77479,0.34866 -0.77479,0.77479 0,0.42614 0.34866,0.7748 0.77479,0.7748 0.42614,0 0.7748,-0.34866 0.7748,-0.7748 z m 18.98242,0 c 0.26336,-0.42613 1.31587,-0.77479 2.33891,-0.77479 1.53775,0 1.84211,-0.36921 1.75647,-2.13068 -0.057,-1.17187 0.0442,-2.65366 0.22489,-3.29287 0.22896,-0.81007 -0.16375,-1.09483 -1.29619,-0.93988 -0.89357,0.12227 -2.06939,-0.31355 -2.61295,-0.96849 -1.35545,-1.63322 -2.34812,-1.49307 -2.34812,0.33153 0,0.83728 -0.69731,1.89552 -1.54958,2.35164 -0.85227,0.45612 -1.54959,1.1422 -1.54959,1.52463 0,0.38243 0.69732,0.91664 1.54959,1.18714 0.85227,0.2705 1.54958,1.16564 1.54958,1.9892 0,1.59093 1.13795,2.01543 1.93699,0.72257 z m 115.056692,-1.54958 c 0,-0.42614 -0.52299,-0.77479 -1.16219,-0.77479 -0.6392,0 -1.16219,0.34865 -1.16219,0.77479 0,0.42614 0.52299,0.77479 1.16219,0.77479 0.6392,0 1.16219,-0.34865 1.16219,-0.77479 z m 22.27477,-0.75173 c 0.80505,-1.28908 0.72618,-1.64808 -0.50706,-2.3081 -2.01936,-1.08072 -3.83416,0.94184 -2.3979,2.67243 1.26892,1.52896 1.76114,1.46722 2.90496,-0.36433 z m 14.14048,-0.0231 c 0,-0.42614 -0.34866,-0.7748 -0.77479,-0.7748 -0.42614,0 -0.7748,0.34866 -0.7748,0.7748 0,0.42613 0.34866,0.77479 0.7748,0.77479 0.42613,0 0.77479,-0.34866 0.77479,-0.77479 z M 46.514588,112.48904 c 0,-0.63921 -0.34866,-1.16219 -0.77479,-1.16219 -0.42614,0 -0.77479,0.52298 -0.77479,1.16219 0,0.6392 0.34865,1.16219 0.77479,1.16219 0.42613,0 0.77479,-0.52299 0.77479,-1.16219 z m 28.42319,0.3381 c 2.70928,-1.02363 6.21205,-4.28063 7.72994,-7.18755 1.07005,-2.04927 1.05196,-2.17176 -0.26287,-1.78008 -6.88707,2.0516 -10.6601,1.05399 -13.69072,-3.61994 -1.13021,-1.743046 -2.05493,-3.622366 -2.05493,-4.176266 0,-0.55391 -0.78448,-1.04755 -1.74328,-1.09698 -1.31186,-0.0676 -1.40773,-0.17757 -0.3874,-0.44421 1.78204,-0.4657 1.74829,-1.79029 -0.0456,-1.79029 -0.77083,0 -2.04495,-0.4705 -2.83138,-1.04556 -1.2848,-0.93947 -1.16225,-1.01161 1.2078,-0.71106 l 2.63768,0.33448 -2.43354,-1.55051 c -3.25695,-2.07515 -3.99215,-3.4136 -1.07594,-1.95881 2.75018,1.37198 4.47885,0.75531 2.97209,-1.06023 -0.8711,-1.049601 -0.76354,-1.129904 0.83419,-0.622804 1.24914,0.396464 1.66746,0.312324 1.31142,-0.263779 -1.19266,-1.92976 -11.17328,0.01515 -13.65972,2.661853 -5.01781,5.34121 0.47271,20.379536 8.75481,23.979106 3.0092,1.30786 9.69426,1.48243 12.73746,0.33263 z m 57.881382,-2.22267 c 3.23789,-2.00113 5.83574,-5.40439 5.29735,-6.9397 -0.22838,-0.65129 -0.0353,-0.86487 0.489,-0.54085 0.56942,0.35192 0.69154,0.0797 0.35625,-0.79405 -0.37354,-0.97344 -0.23534,-1.15967 0.51598,-0.69533 0.64305,0.39744 0.83997,0.33294 0.52743,-0.17276 -0.2743,-0.44383 -0.10287,-2.778066 0.38094,-5.187186 1.6073,-8.00333 -1.27054,-12.776946 -8.42284,-13.971404 -2.48775,-0.415461 -3.68672,-0.233321 -5.03616,0.765055 -1.7566,1.299623 -1.74733,1.306872 1.13439,0.88691 3.45934,-0.504139 3.63692,-0.192357 0.7748,1.360371 l -2.13068,1.155908 2.18161,0.031 c 1.19989,0.0171 2.89808,-0.35242 3.77377,-0.821073 1.16337,-0.622621 1.44912,-0.620669 1.06105,0.0073 -0.29211,0.472643 -1.81598,1.537983 -3.38637,2.367443 l -2.85527,1.50809 2.71177,0.0838 2.71178,0.0838 -2.45238,1.22209 c -1.72714,0.86068 -2.58652,1.93707 -2.90593,3.63971 -0.693,3.69397 -4.92313,8.035376 -8.58796,8.813866 -7.34316,1.55985 -13.23928,-2.20073 -14.71943,-9.388086 -0.37523,-1.82203 -0.64665,-2.03823 -1.58313,-1.26102 -1.71466,1.42305 -1.35804,5.41051 0.88681,9.915356 3.67679,7.37836 9.66073,10.31085 20.18726,9.89297 4.86313,-0.19305 6.95974,-0.64563 9.08996,-1.96217 z m -2.62698,-0.13247 c 1.49148,-0.89311 3.93208,-2.72226 5.42355,-4.06477 l 2.71178,-2.44091 -2.71178,2.97158 c -1.49147,1.63436 -3.65326,3.46481 -4.80398,4.06766 -3.21622,1.68495 -3.67075,1.29353 -0.61957,-0.53356 z m 62.37081,1.62964 c 0.26337,-0.42613 0.10962,-0.77479 -0.34167,-0.77479 -0.45129,0 -0.82052,0.34866 -0.82052,0.77479 0,0.42614 0.15375,0.77479 0.34167,0.77479 0.18791,0 0.55715,-0.34865 0.82052,-0.77479 z M 17.669708,110.69733 c 0.16868,-0.50604 -0.24535,-0.92007 -0.92007,-0.92007 -0.67471,0 -1.22675,0.55204 -1.22675,1.22676 0,1.36823 1.66794,1.12995 2.14682,-0.30669 z m 63.79312,-1.11376 c 0.82123,-0.95881 1.8786,-2.4406 2.34971,-3.29287 0.47111,-0.85227 0.54969,-1.20093 0.17463,-0.7748 -0.37507,0.42614 -1.70327,1.90793 -2.95157,3.29287 -1.2483,1.38495 -1.9988,2.51808 -1.66777,2.51808 0.33102,0 1.27376,-0.78448 2.095,-1.74328 z m 73.135322,0.96849 c 0.26337,-0.42614 0.10962,-0.7748 -0.34167,-0.7748 -0.45128,0 -0.82052,0.34866 -0.82052,0.7748 0,0.42613 0.15375,0.77479 0.34167,0.77479 0.18792,0 0.55715,-0.34866 0.82052,-0.77479 z m 23.24378,-3.87397 c 0.2705,-0.85227 1.14506,-1.54958 1.94346,-1.54958 1.97528,0 2.54972,-1.16746 1.14718,-2.33146 -0.63451,-0.5266 -1.15366,-1.78641 -1.15366,-2.799566 0,-1.84509 -1.78418,-2.5682 -2.69609,-1.0927 -0.25474,0.41218 -1.54258,0.53353 -2.86188,0.26967 -2.16095,-0.43219 -2.31946,-0.33812 -1.59918,0.948956 0.5885,1.05158 0.49027,1.90073 -0.37212,3.21691 -1.11807,1.70639 -1.08137,1.78819 0.80221,1.78819 1.29342,0 2.14343,0.53419 2.4657,1.54958 0.2705,0.85228 0.79349,1.54959 1.16219,1.54959 0.3687,0 0.89168,-0.69731 1.16219,-1.54959 z m -18.98242,-0.77479 c 0,-0.85227 -0.50241,-1.54958 -1.11646,-1.54958 -1.36874,0 -2.24385,1.27503 -1.59531,2.32437 0.84257,1.36333 2.71177,0.82927 2.71177,-0.77479 z M 41.091038,105.12851 c 0,-0.42614 -0.34865,-0.77479 -0.77479,-0.77479 -0.42614,0 -0.77479,0.34865 -0.77479,0.77479 0,0.42613 0.34865,0.77479 0.77479,0.77479 0.42614,0 0.77479,-0.34866 0.77479,-0.77479 z m 41.64511,-2.80569 c 1.6803,-1.06412 2.4656,-4.167446 1.05457,-4.167446 -0.37879,0 -0.64028,0.58975 -0.58109,1.31056 0.11815,1.438936 -2.87499,3.310456 -5.31594,3.323876 -2.77396,0.0153 -6.62223,-2.998796 -8.16335,-6.393736 -1.2376,-2.7263 -1.4899,-2.95142 -1.50164,-1.33988 -0.0209,2.86481 2.76049,6.907636 5.61259,8.158116 2.72673,1.19549 6.13948,0.85345 8.89486,-0.89149 z m -69.53764,-0.29348 c 0,-0.42615 -0.34866,-0.7748 -0.77479,-0.7748 -0.42614,0 -0.7748,0.34865 -0.7748,0.7748 0,0.42613 0.34866,0.77479 0.7748,0.77479 0.42613,0 0.77479,-0.34866 0.77479,-0.77479 z m 4.64876,0.43312 c 0,-0.18792 -0.34866,-0.55715 -0.7748,-0.82053 -0.42613,-0.26336 -0.77479,-0.10961 -0.77479,0.34168 0,0.45129 0.34866,0.82052 0.77479,0.82052 0.42614,0 0.7748,-0.15375 0.7748,-0.34167 z m 102.242672,-0.80505 c 2.94356,-1.52217 5.45349,-4.812186 5.45349,-7.148436 0,-1.67808 -0.12914,-1.75871 -1.16219,-0.72565 -0.6392,0.63921 -1.16219,1.53575 -1.16219,1.99232 0,0.45658 -0.7208,0.83014 -1.6018,0.83014 -1.21151,0 -1.48986,0.35266 -1.14241,1.44739 0.34757,1.09509 -0.12097,1.68779 -1.92489,2.434996 -3.60952,1.49512 -8.14904,-0.0958 -10.20204,-3.575366 -1.90807,-3.23393 -2.79039,-2.89012 -1.37184,0.53456 1.94118,4.686446 8.26605,6.716966 13.11387,4.210046 z m 67.82429,-0.40287 c 0.26337,-0.42614 0.10962,-0.7748 -0.34167,-0.7748 -0.45128,0 -0.82052,0.34866 -0.82052,0.7748 0,0.42613 0.15375,0.7748 0.34167,0.7748 0.18792,0 0.55715,-0.34867 0.82052,-0.7748 z M 43.415418,99.704954 c 0,-0.42614 -0.15375,-0.77479 -0.34167,-0.77479 -0.18792,0 -0.55715,0.34865 -0.82052,0.77479 -0.26336,0.426136 -0.10961,0.774786 0.34167,0.774786 0.45129,0 0.82052,-0.34865 0.82052,-0.774786 z m 115.023602,0.0535 c 0.24518,-0.39669 0.0914,-0.94025 -0.34167,-1.20792 -0.43308,-0.26766 -0.78743,0.0569 -0.78743,0.72126 0,1.360936 0.46493,1.561326 1.1291,0.48666 z M 31.804108,99.027014 c 0.006,-0.26634 0.22081,-1.26873 0.47776,-2.22753 0.3358,-1.25301 0.13308,-1.74329 -0.7208,-1.74329 -0.6534,0 -1.326,-0.41402 -1.49468,-0.92006 -0.1937,-0.5811 -0.98463,-0.24212 -2.14682,0.92006 -1.16219,1.16219 -1.50116,1.95313 -0.92007,2.14683 0.50604,0.16868 0.92007,0.75703 0.92007,1.30746 0,0.97213 3.86336,1.48584 3.88454,0.51653 z m 135.965512,-5.5204 c 0.26337,-0.42614 0.10962,-0.77479 -0.34166,-0.77479 -0.45129,0 -0.82052,0.34865 -0.82052,0.77479 0,0.42614 0.15375,0.77479 0.34166,0.77479 0.18792,0 0.55716,-0.34865 0.82052,-0.77479 z m 22.08159,-0.82052 c 0,-0.40099 -0.52298,-0.72907 -1.16219,-0.72907 -1.19814,0 -1.53928,0.91423 -0.66672,1.78679 0.61901,0.61901 1.82891,-0.0807 1.82891,-1.05772 z m -114.618362,0.0185 c 2.74712,-1.47022 1.07585,-5.39629 -2.29711,-5.39629 -1.66121,0 -2.37611,2.79216 -1.15961,4.52897 1.34438,1.91937 1.44416,1.94441 3.45672,0.86732 z m -50.41245,-1.52233 c 0,-0.42613 -0.34866,-0.77479 -0.77479,-0.77479 -0.42614,0 -0.7748,0.34866 -0.7748,0.77479 0,0.42614 0.34866,0.77479 0.7748,0.77479 0.42613,0 0.77479,-0.34865 0.77479,-0.77479 z m 11.52027,-0.48016 c 1.43457,-1.22831 1.43475,-1.28587 0.009,-2.71177 -1.4259,-1.4259 -1.48777,-1.42587 -2.91504,10e-4 -1.34618,1.34618 -1.36106,1.54951 -0.1937,2.64632 1.62109,1.52312 1.40113,1.51858 3.09988,0.0641 z m 68.283362,-0.29463 c 0,-0.42614 -0.15375,-0.77479 -0.34167,-0.77479 -0.18792,0 -0.55715,0.34865 -0.82052,0.77479 -0.26337,0.42614 -0.10962,0.77479 0.34167,0.77479 0.45128,0 0.82052,-0.34865 0.82052,-0.77479 z m 9.14886,-1.67678 c 0.29483,-2.54913 -2.44174,-3.812811 -4.27874,-1.97581 -1.83699,1.83699 -0.57331,4.57356 1.97582,4.27873 1.58407,-0.18321 2.1197,-0.71886 2.30292,-2.30292 z m 45.86141,1.33511 c 0,-0.18792 -0.34865,-0.55715 -0.77479,-0.82052 -0.42614,-0.26337 -0.77479,-0.10961 -0.77479,0.34167 0,0.45129 0.34865,0.82052 0.77479,0.82052 0.42614,0 0.77479,-0.15375 0.77479,-0.34167 z m 13.17148,-1.12964 c 0,-0.72487 0.40696,-1.7249 0.90435,-2.2223 0.68927,-0.689269 0.55107,-1.034691 -0.58109,-1.452413 -0.817,-0.301437 -1.78076,-1.039633 -2.14168,-1.640439 -0.5385,-0.896414 -0.92613,-0.802654 -2.16086,0.522667 -0.82755,0.888271 -1.90944,1.615039 -2.40421,1.615039 -0.66613,0 -0.65829,0.241272 0.0302,0.929746 0.51136,0.51137 0.92975,1.48824 0.92975,2.17083 0,0.8872 0.77322,1.26299 2.71177,1.31794 2.0665,0.0586 2.71178,-0.23674 2.71178,-1.24107 z m -124.354212,-0.0783 c 0.26337,-0.42613 -0.23904,-0.77479 -1.11646,-0.77479 -0.87742,0 -1.59531,0.34866 -1.59531,0.77479 0,0.42614 0.50241,0.7748 1.11646,0.7748 0.61406,0 1.33195,-0.34866 1.59531,-0.7748 z m 53.946922,-0.5811 c 0.96373,-1.22886 0.93633,-1.25627 -0.29253,-0.29253 -1.29061,1.01217 -1.70104,1.64842 -1.06335,1.64842 0.16088,0 0.77103,-0.61015 1.35588,-1.35589 z m 79.3174,-1.74328 c 0.26337,-0.42614 -0.0853,-0.774796 -0.77479,-0.774796 -0.6895,0 -1.03816,0.348656 -0.77479,0.774796 0.26336,0.42613 0.61202,0.77479 0.77479,0.77479 0.16277,0 0.51142,-0.34866 0.77479,-0.77479 z M 24.045608,85.417017 c 0,-0.187919 -0.34866,-0.557151 -0.7748,-0.820518 -0.42613,-0.263367 -0.77479,-0.109615 -0.77479,0.34167 0,0.451285 0.34866,0.820519 0.77479,0.820519 0.42614,0 0.7748,-0.153752 0.7748,-0.341671 z m 48.81193,-1.982707 c -1.06534,-0.341181 -2.98295,-0.609186 -4.26136,-0.595567 -2.25252,0.024 -2.24055,0.04241 0.3874,0.595567 3.86527,0.813604 6.41444,0.813604 3.87396,0 z m 70.893512,0 c 0.28013,-0.453253 -0.52372,-0.774793 -1.93698,-0.774793 -1.41326,0 -2.21711,0.32154 -1.93698,0.774793 0.26337,0.426136 1.13501,0.774793 1.93698,0.774793 0.80198,0 1.67362,-0.348657 1.93698,-0.774793 z M 31.793528,83.09264 c 0,-0.187919 -0.34865,-0.557152 -0.77479,-0.820519 -0.42614,-0.263367 -0.77479,-0.109614 -0.77479,0.341671 0,0.451284 0.34865,0.820518 0.77479,0.820518 0.42614,0 0.77479,-0.153751 0.77479,-0.34167 z m 93.943602,-0.946253 c -0.53267,-0.214937 -1.40432,-0.214937 -1.93699,0 -0.53266,0.214938 -0.0968,0.390795 0.9685,0.390795 1.06534,0 1.50116,-0.175857 0.96849,-0.390795 z m 36.99634,-0.261662 c 0,-0.426136 -0.34865,-0.774793 -0.77479,-0.774793 -0.42614,0 -0.77479,0.348657 -0.77479,0.774793 0,0.426136 0.34865,0.774792 0.77479,0.774792 0.42614,0 0.77479,-0.348656 0.77479,-0.774792 z m 23.24378,0 c 0,-0.426136 -0.32808,-0.774793 -0.72906,-0.774793 -0.40099,0 -0.94455,0.348657 -1.20792,0.774793 -0.26337,0.426136 0.0647,0.774792 0.72906,0.774792 0.66436,0 1.20792,-0.348656 1.20792,-0.774792 z m -36.00094,-2.518076 c -0.29767,-0.958806 -0.62598,-2.403334 -0.72957,-3.210062 -0.1036,-0.806729 -0.92031,-2.288519 -1.81491,-3.292868 -0.8946,-1.00435 -1.30427,-1.82609 -0.91037,-1.82609 1.40576,0 0.68341,-1.315776 -1.19129,-2.169946 l -1.90745,-0.869092 2.29485,-2.294845 c 2.37611,-2.37611 2.61439,-3.689814 1.6324,-8.99978 l -0.57314,-3.099171 -0.60472,2.324378 c -0.33259,1.278408 -1.49501,3.494287 -2.58314,4.924176 -1.77209,2.328659 -1.81034,2.509844 -0.36681,1.737288 0.88638,-0.474379 2.15248,-1.634703 2.81354,-2.578495 0.66105,-0.943793 1.20192,-1.266831 1.20192,-0.717863 0,1.482232 -1.49017,4.052948 -4.0709,7.022745 l -2.29407,2.639926 1.8266,1.012884 c 1.03725,0.575176 1.34408,1.024749 0.71002,1.04034 -0.80606,0.01982 -0.69833,0.343801 0.3874,1.165003 1.08004,0.816902 1.19012,1.144493 0.39052,1.162189 -0.7651,0.01693 -0.49173,0.691215 0.87382,2.15532 1.093,1.171874 2.39079,2.915157 2.884,3.873963 0.49319,0.958806 1.27377,1.743283 1.73462,1.743283 0.51276,0 0.62788,-0.67646 0.29668,-1.743283 z m -20.62348,-0.289105 c 0.59333,-0.536647 -6.48989,-0.117164 -8.84555,0.523853 -1.46619,0.398973 -0.32193,0.472934 3.09917,0.20032 2.98295,-0.237701 5.56882,-0.563579 5.74638,-0.724173 z m 51.20087,0.915925 c 0,-0.187919 -0.34865,-0.557151 -0.77479,-0.820518 -0.42614,-0.263367 -0.77479,-0.109615 -0.77479,0.34167 0,0.451285 0.34865,0.820519 0.77479,0.820519 0.42614,0 0.77479,-0.153752 0.77479,-0.341671 z M 45.611988,77.572638 c 0.14277,-0.398236 0.60192,-1.136556 1.02033,-1.640713 0.5233,-0.630532 0.25446,-1.422939 -0.8613,-2.538694 -1.56859,-1.568594 -1.68439,-1.576686 -3.51406,-0.245542 -1.9793,1.440011 -2.48388,2.538695 -1.16592,2.538695 0.42614,0 0.7748,0.621663 0.7748,1.381472 0,0.93872 0.5587,1.357014 1.74328,1.305159 0.9588,-0.04197 1.8601,-0.402143 2.00287,-0.800377 z M 160.40909,77.235969 c 0,-0.426136 -0.34865,-0.774792 -0.77479,-0.774792 -0.42613,0 -0.77479,0.348656 -0.77479,0.774792 0,0.426136 0.34866,0.774793 0.77479,0.774793 0.42614,0 0.77479,-0.348657 0.77479,-0.774793 z M 30.841178,75.056865 c 0.16868,-0.506036 -0.24535,-0.920066 -0.92006,-0.920066 -0.67472,0 -1.22676,0.55204 -1.22676,1.226755 0,1.368227 1.66794,1.129949 2.14682,-0.306689 z m 26.71421,-2.207989 c -0.53267,-0.214937 -1.40432,-0.214937 -1.93699,0 -0.53267,0.214937 -0.0969,0.390794 0.9685,0.390794 1.06533,0 1.50116,-0.175857 0.96849,-0.390794 z M 172.5556,71.346829 c 0.60844,-1.585581 -1.29956,-2.823188 -2.63886,-1.711667 -0.75624,0.627621 -0.78704,1.094727 -0.12482,1.892662 1.16636,1.40537 2.18042,1.33896 2.76368,-0.180995 z m -12.14651,-2.292814 c 0,-0.542533 0.43583,-1.169571 0.9685,-1.393418 0.69355,-0.291455 0.58358,-0.650636 -0.3874,-1.265254 -0.74574,-0.472044 -1.35589,-1.417959 -1.35589,-2.102034 0,-1.1278 -0.13212,-1.124211 -1.41689,0.0385 -0.7793,0.70525 -1.84584,1.282272 -2.37011,1.282272 -0.57003,0 -0.709,0.389323 -0.34573,0.968491 0.33413,0.53267 0.52272,1.491476 0.4191,2.13068 -0.13032,0.803995 0.53233,1.187616 2.15002,1.244689 1.42007,0.0501 2.3384,-0.304887 2.3384,-0.903926 z m -9.29751,-2.23202 c 0,-0.817774 -1.48691,-1.161345 -1.92917,-0.44576 -0.26766,0.433087 0.0569,0.787431 0.72126,0.787431 0.66435,0 1.20791,-0.153752 1.20791,-0.341671 z m -113.507102,-2.7575 c -0.26337,-0.426136 -0.80693,-0.774792 -1.20792,-0.774792 -0.40099,0 -0.72906,0.348656 -0.72906,0.774792 0,0.426136 0.54356,0.774793 1.20791,0.774793 0.66435,0 0.99243,-0.348657 0.72907,-0.774793 z m 92.587702,-0.810193 c 0.84876,-0.574358 0.53532,-0.646242 -1.16219,-0.266536 -2.84885,0.637244 -3.46728,1.080702 -1.48502,1.064865 0.81677,-0.0065 2.00801,-0.365773 2.64721,-0.798329 z m 7.92977,-2.676373 c 0.31307,-0.426136 0.56354,-1.297778 0.55661,-1.936982 -0.008,-0.76608 -0.66447,-0.421263 -1.92512,1.011696 -2.22028,2.523733 -2.58972,4.357912 -0.55661,2.763438 0.74573,-0.584848 1.61204,-1.412017 1.92512,-1.838152 z m 26.9359,0.387396 c 0,-0.426136 -0.34866,-0.774793 -0.77479,-0.774793 -0.42614,0 -0.77479,0.348657 -0.77479,0.774793 0,0.426136 0.34865,0.774792 0.77479,0.774792 0.42613,0 0.77479,-0.348656 0.77479,-0.774792 z M 42.640628,60.190532 c 0,-0.426136 -0.34866,-0.774792 -0.77479,-0.774792 -0.42614,0 -0.7748,0.348656 -0.7748,0.774792 0,0.426136 0.34866,0.774793 0.7748,0.774793 0.42613,0 0.77479,-0.348657 0.77479,-0.774793 z M 145.68804,52.399401 c 0,-2.106917 -0.34866,-3.830758 -0.7748,-3.830758 -0.42613,0 -0.77479,1.352048 -0.77479,3.00455 0,1.652502 -0.53535,4.354592 -1.18968,6.004643 l -1.18967,3.000093 1.96446,-2.173886 c 1.54476,-1.709433 1.96448,-2.992328 1.96448,-6.004642 z m -2.18957,-2.087474 c 0.16145,-1.811078 0.0565,-3.292869 -0.23326,-3.292869 -0.28973,0 -0.6476,1.726439 -0.79527,3.83653 -0.32384,4.627679 0.61163,4.133209 1.02853,-0.543661 z m 12.26187,3.680265 c 0,-0.426136 -0.34866,-0.774793 -0.77479,-0.774793 -0.42614,0 -0.7748,0.348657 -0.7748,0.774793 0,0.426135 0.34866,0.774792 0.7748,0.774792 0.42613,0 0.77479,-0.348657 0.77479,-0.774792 z M 142.58887,221.79014 c 0,-2.36726 2.27133,-4.88137 3.14007,-3.47572 0.62572,1.01243 0.20904,2.78648 -1.03084,4.38886 -1.186,1.53276 -2.10923,1.13306 -2.10923,-0.91314 z m -45.448728,-7.84539 c -0.25839,-0.67333 -0.0237,-1.63662 0.52155,-2.14064 0.76777,-0.70974 0.86803,-0.698 0.44455,0.0521 -0.69703,1.2346 0.49137,1.26146 1.71408,0.0387 0.511358,-0.51136 0.929748,-0.58885 0.929748,-0.17219 0,0.41666 -0.70653,1.36251 -1.570078,2.10191 -1.40748,1.20512 -1.61872,1.21756 -2.03985,0.1201 z m -16.473504,-0.79724 c 0.0372,-0.90259 0.22076,-1.08618 0.46809,-0.4681 0.22382,0.55929 0.1963,1.22755 -0.0611,1.48502 -0.25746,0.25745 -0.44057,-0.20016 -0.40693,-1.01692 z m 10.78592,-0.69709 -3.48656,-0.94665 3.48656,-0.58934 c 1.91761,-0.32413 3.92239,-0.94126 4.45506,-1.37139 0.65894,-0.53209 0.968494,-0.5164 0.968494,0.0491 0,0.45713 -0.610154,1.19076 -1.355894,1.63027 -1.18256,0.69697 -1.20732,0.89846 -0.1937,1.57622 1.418964,0.9488 0.64758,0.87946 -3.87396,-0.34821 z m -60.82122,-4.2745 c 0.7713,-0.85227 1.57669,-1.54958 1.78975,-1.54958 0.21307,0 -0.24366,0.69731 -1.01495,1.54958 -0.7713,0.85228 -1.57669,1.54959 -1.78976,1.54959 -0.21306,0 0.24367,-0.69731 1.01496,-1.54959 z m 4.45506,-10.62725 c 1.17187,-0.17752 3.08949,-0.17752 4.26136,0 1.17187,0.17753 0.21307,0.32278 -2.13068,0.32278 -2.34375,0 -3.30255,-0.14525 -2.13068,-0.32278 z m 6.844,-0.50229 c 0.17756,-0.15535 1.19447,-0.69756 2.25981,-1.20493 1.8264,-0.86982 1.85112,-0.85369 0.43301,0.28244 -1.23424,0.98884 -3.75608,1.85275 -2.69282,0.92249 z m 4.58419,-0.78488 c 0,-0.16088 0.61015,-0.77103 1.35589,-1.35588 1.22886,-0.96374 1.25627,-0.93634 0.29253,0.29253 -1.01217,1.29061 -1.64842,1.70104 -1.64842,1.06335 z m 117.768472,-5.90581 c 0,-0.42613 0.36923,-0.77479 0.82052,-0.77479 0.45128,0 0.60503,0.34866 0.34167,0.77479 -0.26337,0.42614 -0.63261,0.7748 -0.82052,0.7748 -0.18792,0 -0.34167,-0.34866 -0.34167,-0.7748 z m -2.70629,-1.54071 c -0.27144,-0.4392 0.0396,-0.56909 0.72906,-0.3045 1.34227,0.51507 1.58786,1.07042 0.47337,1.07042 -0.40099,0 -0.94208,-0.34467 -1.20243,-0.76592 z m 8.90463,-13.95514 c 0,-0.42613 0.9588,-0.75028 2.13068,-0.72033 1.88804,0.0483 1.95422,0.13028 0.58109,0.72033 -2.11625,0.90938 -2.71177,0.90938 -2.71177,0 z M 26.381848,173.56733 c -0.006,-0.92396 -0.2012,-2.17331 -0.4326,-2.77635 -0.25075,-0.65344 0.0623,-1.09642 0.77479,-1.09642 1.34518,0 1.59221,2.57776 0.42074,4.39049 -0.61191,0.94686 -0.75327,0.85094 -0.76293,-0.51772 z m 145.442522,-1.12801 c 0.52557,-0.52951 1.15075,-0.76756 1.3893,-0.52901 0.23855,0.23855 -0.19146,0.67178 -0.95557,0.96274 -1.10424,0.42046 -1.19323,0.33147 -0.43373,-0.43373 z M 46.281768,166.84796 c -0.21923,-0.57132 -0.12579,-1.48018 0.20766,-2.01971 0.38764,-0.62721 0.60626,-0.25264 0.60626,1.03876 0,2.25422 -0.22244,2.52231 -0.81392,0.98095 z m -16.42522,-13.68231 c -0.26337,-0.42614 -0.10961,-0.77479 0.34167,-0.77479 0.45129,0 0.82052,0.34865 0.82052,0.77479 0,0.42614 -0.15375,0.77479 -0.34167,0.77479 -0.18792,0 -0.55715,-0.34865 -0.82052,-0.77479 z m 63.25803,-67.406962 c 0.0649,-1.06534 -0.15127,-2.562168 -0.48034,-3.326284 -0.32908,-0.764117 -0.38841,-1.599213 -0.13185,-1.855771 0.25656,-0.256558 0.80052,0.368629 1.20879,1.389303 0.7203,1.800707 0.74379,1.805401 0.79144,0.158213 0.027,-0.933657 -0.29954,-1.913039 -0.72568,-2.176406 -0.42614,-0.263366 -0.76945,-0.894092 -0.76293,-1.401613 0.007,-0.559996 0.31798,-0.465872 0.79054,0.239424 0.66454,0.991859 1.00346,0.894114 2.31251,-0.666929 1.799414,-2.145806 1.985454,-1.578346 0.43345,1.322178 -0.60521,1.131089 -1.65242,3.451152 -2.32714,5.155696 -0.91995,2.324115 -1.19724,2.614765 -1.10879,1.162189 z M 116.24699,57.209233 c 5.9e-4,-0.277898 2.00537,-1.133414 4.45506,-1.901148 2.44969,-0.767735 4.97697,-1.56847 5.61617,-1.77941 0.6392,-0.210941 0.17854,0.179868 -1.02371,0.868465 -2.66498,1.526393 -9.049,3.510633 -9.04752,2.812093 z m -51.880052,-3.29566 c -2.48023,-3.423852 -3.54732,-5.961953 -2.81464,-6.694639 0.25198,-0.251978 0.45814,0.08383 0.45814,0.74624 0,0.662409 1.22608,2.986786 2.72463,5.165284 3.23934,4.709176 2.93889,5.348322 -0.36813,0.783115 z m 9.01253,2.014526 c -3.99974,-1.375044 -7.75158,-4.867056 -9.68996,-9.018891 -0.92349,-1.978029 -1.67907,-3.900494 -1.67907,-4.272144 0,-0.877953 6.95179,-4.177058 9.15085,-4.342708 0.93294,-0.07028 1.69625,-0.460345 1.69625,-0.86682 0,-0.406475 0.20277,-0.536281 0.45059,-0.288456 0.24782,0.247824 1.71759,-0.0788 3.26615,-0.725826 1.93939,-0.81033 2.90423,-0.910363 3.10054,-0.321457 0.40709,1.221283 1.70544,1.058647 1.70544,-0.213631 0,-0.72223 1.82071,-1.377955 5.61724,-2.023045 13.234922,-2.248812 26.520242,-1.681138 39.314242,1.679875 3.19959,0.840537 6.20647,1.602782 6.68197,1.693877 2.27622,0.436077 4.25342,2.478925 3.72675,3.850506 -0.42802,1.114674 -0.68675,1.198153 -1.20069,0.387396 -0.47121,-0.743353 -0.65843,-0.549915 -0.66697,0.689103 -0.0181,2.625343 -3.00075,8.165634 -5.31165,9.86637 -1.83917,1.35356 -1.79,1.204879 0.45734,-1.382847 3.29493,-3.793987 3.2009,-4.3804 -0.22067,-1.376227 -3.26957,2.87073 -3.43837,2.909401 -2.88682,0.661356 0.39869,-1.625003 0.31409,-1.602525 -1.24683,0.331309 -2.24962,2.787029 -6.35847,4.058029 -10.84601,3.355019 -1.97362,-0.309182 -5.24458,-0.611358 -7.26879,-0.671503 -2.02422,-0.06015 -3.68034,-0.326578 -3.68027,-0.592075 7e-5,-0.265498 -1.65597,-0.395347 -3.68012,-0.288554 -2.024148,0.106794 -3.680272,0.275077 -3.680272,0.373964 0,0.09889 -1.12265,0.274573 -2.49477,0.390415 -1.37212,0.115842 -3.11541,0.480531 -3.87396,0.81042 -0.75856,0.329888 -2.56707,0.703577 -4.01893,0.830418 -3.31889,0.289957 -4.92648,0.892993 -4.44733,1.668274 0.60495,0.978838 -5.25366,0.834311 -8.27425,-0.204118 z m 1.02765,-3.485493 c 0,-0.426136 -0.34865,-0.774792 -0.77479,-0.774792 -0.42613,0 -0.77479,0.348656 -0.77479,0.774792 0,0.426136 0.34866,0.774793 0.77479,0.774793 0.42614,0 0.77479,-0.348657 0.77479,-0.774793 z m 10.07231,-3.982245 c 0,-0.485692 0.61015,-1.332433 1.35589,-1.881646 1.29132,-0.951019 1.29132,-1.0236 0,-1.524197 -0.74574,-0.289094 -1.35589,-1.040363 -1.35589,-1.669487 0,-0.639341 -0.42717,-0.944734 -0.96849,-0.692397 -0.53267,0.248306 -1.59836,0.671838 -2.3682,0.941183 -0.81996,0.28688 -1.2211,0.955165 -0.96849,1.613452 0.23717,0.618053 0.43122,1.60726 0.43122,2.198237 0,0.636797 0.47342,0.892833 1.16218,0.62853 0.63921,-0.245285 1.16219,-0.06002 1.16219,0.411713 0,0.471728 0.34866,0.857687 0.7748,0.857687 0.42613,0 0.77479,-0.397384 0.77479,-0.883075 z m 11.62189,-2.216095 c 0,-0.426136 -0.34866,-0.774793 -0.7748,-0.774793 -0.42613,0 -0.77479,0.348657 -0.77479,0.774793 0,0.426136 0.34866,0.774792 0.77479,0.774792 0.42614,0 0.7748,-0.348656 0.7748,-0.774792 z M 115.6164,44.549407 c 1.09082,-1.090827 1.36696,-1.80416 0.77479,-2.001547 -0.50604,-0.16868 -0.92007,-0.837922 -0.92007,-1.487206 0,-0.75816 -0.43847,-1.01226 -1.22555,-0.710227 -0.67406,0.25866 -1.50505,0.47029 -1.84666,0.47029 -0.34161,0 -0.78772,0.871642 -0.99138,1.936982 -0.2483,1.298871 -0.0228,1.936981 0.68447,1.936981 0.58011,0 1.05475,0.348657 1.05475,0.774793 0,1.170886 0.60355,0.946033 2.46965,-0.920066 z M 99.882032,40.320968 c -0.67517,-0.81354 -1.14254,-0.856977 -1.95608,-0.181798 -0.81354,0.675178 -0.85698,1.142548 -0.1818,1.956089 0.67518,0.813541 1.14255,0.856978 1.95609,0.181799 0.813538,-0.675178 0.856968,-1.142549 0.18179,-1.95609 z m 27.985778,2.049335 c 0,-0.426136 -0.54357,-0.774793 -1.20792,-0.774793 -0.66435,0 -0.99243,0.348657 -0.72907,0.774793 0.26337,0.426136 0.80694,0.774792 1.20792,0.774792 0.40099,0 0.72907,-0.348656 0.72907,-0.774792 z"
       id="path39" />
  </g>
</svg>
